<?xml version="1.0" encoding="UTF-8"?>
<svg width="1100px" height="1100px" viewBox="0 0 1100 1100" version="1.1" xmlns="http://www.w3.org/2000/svg" xmlns:xlink="http://www.w3.org/1999/xlink">
    <!-- Generator: Sketch 54.1 (76490) - https://sketchapp.com -->
    <title>编组 27</title>
    <desc>Created with Sketch.</desc>
    <defs>
        <linearGradient x1="-0.158754864%" y1="50%" x2="100.084436%" y2="50%" id="linearGradient-1">
            <stop stop-color="#FF9800" offset="14.99%"></stop>
            <stop stop-color="#FFC107" offset="100%"></stop>
        </linearGradient>
        <linearGradient x1="-0.313846154%" y1="50%" x2="100.006154%" y2="50%" id="linearGradient-2">
            <stop stop-color="#FF9800" offset="14.99%"></stop>
            <stop stop-color="#FFC107" offset="100%"></stop>
        </linearGradient>
        <linearGradient x1="0%" y1="50%" x2="100.164567%" y2="50%" id="linearGradient-3">
            <stop stop-color="#FF9800" offset="14.99%"></stop>
            <stop stop-color="#FFC107" offset="100%"></stop>
        </linearGradient>
        <linearGradient x1="100.849057%" y1="49.9998392%" x2="-0.0849056604%" y2="49.9998392%" id="linearGradient-4">
            <stop stop-color="#FF9800" offset="14.99%"></stop>
            <stop stop-color="#FFC107" offset="100%"></stop>
        </linearGradient>
        <linearGradient x1="99.2056604%" y1="49.999841%" x2="-1.73018868%" y2="49.999841%" id="linearGradient-5">
            <stop stop-color="#FF9800" offset="14.99%"></stop>
            <stop stop-color="#FFC107" offset="100%"></stop>
        </linearGradient>
        <linearGradient x1="99.445283%" y1="49.9998392%" x2="-1.48867925%" y2="49.9998392%" id="linearGradient-6">
            <stop stop-color="#FF9800" offset="14.99%"></stop>
            <stop stop-color="#FFC107" offset="100%"></stop>
        </linearGradient>
        <radialGradient cx="50.1291667%" cy="50.1983542%" fx="50.1291667%" fy="50.1983542%" r="87.9064516%" gradientTransform="translate(0.501292,0.501984),scale(0.574074,1.000000),translate(-0.501292,-0.501984)" id="radialGradient-7">
            <stop stop-color="#48486A" offset="9.12548%"></stop>
            <stop stop-color="#505070" offset="11.79%"></stop>
            <stop stop-color="#8D8DA3" offset="35.08%"></stop>
            <stop stop-color="#BEBECA" offset="56.38%"></stop>
            <stop stop-color="#E2E2E7" offset="74.97%"></stop>
            <stop stop-color="#F7F7F9" offset="90.14%"></stop>
            <stop stop-color="#FFFFFF" offset="100%"></stop>
        </radialGradient>
        <linearGradient x1="-0.50060241%" y1="50%" x2="100.234337%" y2="50%" id="linearGradient-8">
            <stop stop-color="#A5CBEF" offset="0.380205%"></stop>
            <stop stop-color="#CEE3F6" offset="44.19%"></stop>
            <stop stop-color="#FFFFFF" offset="100%"></stop>
        </linearGradient>
        <linearGradient x1="66.4466102%" y1="35.2620314%" x2="32.4525424%" y2="55.3560381%" id="linearGradient-9">
            <stop stop-color="#5D7DBE" offset="0%"></stop>
            <stop stop-color="#3C5185" offset="100%"></stop>
        </linearGradient>
        <linearGradient x1="40.9754438%" y1="63.8602564%" x2="59.8692143%" y2="34.8410256%" id="linearGradient-10">
            <stop stop-color="#3C5185" offset="0%"></stop>
            <stop stop-color="#5D7DBE" offset="100%"></stop>
        </linearGradient>
        <linearGradient x1="-0.263880597%" y1="50%" x2="99.5689552%" y2="50%" id="linearGradient-11">
            <stop stop-color="#FF9800" offset="14.99%"></stop>
            <stop stop-color="#FFC107" offset="100%"></stop>
        </linearGradient>
        <linearGradient x1="0%" y1="50%" x2="99.8732233%" y2="50%" id="linearGradient-12">
            <stop stop-color="#A5CBEF" offset="3.80228%"></stop>
            <stop stop-color="#B9D7F2" offset="22.27%"></stop>
            <stop stop-color="#D4E6F7" offset="52.51%"></stop>
            <stop stop-color="#E4F0FA" offset="79.4%"></stop>
            <stop stop-color="#EAF3FB" offset="100%"></stop>
        </linearGradient>
        <linearGradient x1="-0.146206897%" y1="50.0000713%" x2="100.475172%" y2="50.0000713%" id="linearGradient-13">
            <stop stop-color="#FFFFFF" offset="0%"></stop>
            <stop stop-color="#A8D9FB" offset="100%"></stop>
        </linearGradient>
        <linearGradient x1="0.000540931616%" y1="49.9997901%" x2="99.5372358%" y2="49.9997901%" id="linearGradient-14">
            <stop stop-color="#FF9800" offset="14.99%"></stop>
            <stop stop-color="#FFC107" offset="100%"></stop>
        </linearGradient>
        <linearGradient x1="0.115734775%" y1="49.9998483%" x2="99.3082339%" y2="49.9998483%" id="linearGradient-15">
            <stop stop-color="#FF9800" offset="14.99%"></stop>
            <stop stop-color="#FFC107" offset="100%"></stop>
        </linearGradient>
        <linearGradient x1="103.484993%" y1="16.9017255%" x2="-33.9022328%" y2="120.631027%" id="linearGradient-16">
            <stop stop-color="#A8D9FB" offset="0%"></stop>
            <stop stop-color="#FFFFFF" offset="100%"></stop>
        </linearGradient>
        <radialGradient cx="50%" cy="50.1457717%" fx="50%" fy="50.1457717%" r="87.4711111%" gradientTransform="translate(0.500000,0.501458),scale(0.577982,1.000000),translate(-0.500000,-0.501458)" id="radialGradient-17">
            <stop stop-color="#3C5185" offset="9.12548%"></stop>
            <stop stop-color="#506291" offset="15.63%"></stop>
            <stop stop-color="#8D9AB8" offset="37.9%"></stop>
            <stop stop-color="#BEC5D7" offset="58.27%"></stop>
            <stop stop-color="#E2E5ED" offset="76.06%"></stop>
            <stop stop-color="#F7F8FA" offset="90.57%"></stop>
            <stop stop-color="#FFFFFF" offset="100%"></stop>
        </radialGradient>
        <linearGradient x1="0.276923077%" y1="50%" x2="100.276923%" y2="50%" id="linearGradient-18">
            <stop stop-color="#D3DAED" offset="0%"></stop>
            <stop stop-color="#A5CBEF" offset="100%"></stop>
        </linearGradient>
        <linearGradient x1="0.130769231%" y1="50%" x2="99.8699301%" y2="50%" id="linearGradient-19">
            <stop stop-color="#FF9800" offset="14.99%"></stop>
            <stop stop-color="#FFC107" offset="100%"></stop>
        </linearGradient>
        <radialGradient cx="49.853945%" cy="49.8140028%" fx="49.853945%" fy="49.8140028%" r="87.3936508%" gradientTransform="translate(0.498539,0.498140),scale(0.577982,1.000000),translate(-0.498539,-0.498140)" id="radialGradient-20">
            <stop stop-color="#3C5185" offset="9.12548%"></stop>
            <stop stop-color="#506291" offset="15.63%"></stop>
            <stop stop-color="#8D9AB8" offset="37.9%"></stop>
            <stop stop-color="#BEC5D7" offset="58.27%"></stop>
            <stop stop-color="#E2E5ED" offset="76.06%"></stop>
            <stop stop-color="#F7F8FA" offset="90.57%"></stop>
            <stop stop-color="#FFFFFF" offset="100%"></stop>
        </radialGradient>
        <linearGradient x1="0.444387755%" y1="50%" x2="99.8739796%" y2="50%" id="linearGradient-21">
            <stop stop-color="#D3DAED" offset="0%"></stop>
            <stop stop-color="#A5CBEF" offset="100%"></stop>
        </linearGradient>
        <linearGradient x1="0.614285714%" y1="50%" x2="100.365476%" y2="50%" id="linearGradient-22">
            <stop stop-color="#7EA7DF" offset="0%"></stop>
            <stop stop-color="#A5CBEF" offset="100%"></stop>
        </linearGradient>
        <radialGradient cx="50%" cy="50.2973476%" fx="50%" fy="50.2973476%" r="87.375873%" gradientTransform="translate(0.500000,0.502973),scale(0.577982,1.000000),translate(-0.500000,-0.502973)" id="radialGradient-23">
            <stop stop-color="#3C5185" offset="9.12548%"></stop>
            <stop stop-color="#506291" offset="15.63%"></stop>
            <stop stop-color="#8D9AB8" offset="37.9%"></stop>
            <stop stop-color="#BEC5D7" offset="58.27%"></stop>
            <stop stop-color="#E2E5ED" offset="76.06%"></stop>
            <stop stop-color="#F7F8FA" offset="90.57%"></stop>
            <stop stop-color="#FFFFFF" offset="100%"></stop>
        </radialGradient>
        <linearGradient x1="0.615306122%" y1="50%" x2="100.043878%" y2="50%" id="linearGradient-24">
            <stop stop-color="#D3DAED" offset="0%"></stop>
            <stop stop-color="#A5CBEF" offset="100%"></stop>
        </linearGradient>
        <linearGradient x1="-0.102797203%" y1="50%" x2="99.6356643%" y2="50%" id="linearGradient-25">
            <stop stop-color="#5D7DBE" offset="0%"></stop>
            <stop stop-color="#3C5185" offset="100%"></stop>
        </linearGradient>
        <linearGradient x1="0.40167364%" y1="50%" x2="99.9769874%" y2="50%" id="linearGradient-26">
            <stop stop-color="#FF9800" offset="14.99%"></stop>
            <stop stop-color="#FFC107" offset="100%"></stop>
        </linearGradient>
        <linearGradient x1="91.5355578%" y1="44.6626575%" x2="16.2827175%" y2="69.1624618%" id="linearGradient-27">
            <stop stop-color="#28C4FF" offset="0%"></stop>
            <stop stop-color="#34EDCB" offset="100%"></stop>
        </linearGradient>
        <linearGradient x1="-0.0116387337%" y1="49.998368%" x2="100%" y2="49.998368%" id="linearGradient-28">
            <stop stop-color="#3158D3" offset="0%"></stop>
            <stop stop-color="#306EF3" offset="100%"></stop>
        </linearGradient>
        <linearGradient x1="-0.0116387337%" y1="49.998368%" x2="100%" y2="49.998368%" id="linearGradient-29">
            <stop stop-color="#3158D3" offset="0%"></stop>
            <stop stop-color="#306EF3" offset="100%"></stop>
        </linearGradient>
        <linearGradient x1="87.2554119%" y1="34.9753118%" x2="19.7572078%" y2="103.942578%" id="linearGradient-30">
            <stop stop-color="#28C4FF" offset="0%"></stop>
            <stop stop-color="#34EDCB" offset="100%"></stop>
        </linearGradient>
    </defs>
    <g id="上传" stroke="none" stroke-width="1" fill="none" fill-rule="evenodd">
        <g id="画板" transform="translate(-11582.000000, -3103.000000)">
            <g id="编组-27" transform="translate(11582.000000, 3103.000000)">
                <rect id="矩形复制-20" x="0" y="0" width="1100" height="1100"></rect>
                <g id="编组-131复制" transform="translate(65.000000, 210.000000)" fill-rule="nonzero">
                    <g id="编组" transform="translate(185.000000, 0.000000)">
                        <g opacity="0.3" transform="translate(0.000000, 350.000000)" fill="#3C5185">
                            <polygon id="XMLID_809_" fill-opacity="0" points="129 1.5 2.5 74.5 65.5 111 192 38"></polygon>
                            <polygon id="XMLID_258_" opacity="0.02439" points="129 1.5 5 73 68 109.5 192 38"></polygon>
                            <polygon id="XMLID_257_" opacity="0.04878" points="129 1.5 7.5 71.5 71 108 192 38"></polygon>
                            <polygon id="XMLID_256_" opacity="0.073171" points="129 1.5 10.5 70 73.5 106.5 192 38"></polygon>
                            <polygon id="XMLID_255_" opacity="0.097561" points="129 1.5 13 68 76.5 105 192 38"></polygon>
                            <polygon id="XMLID_254_" opacity="0.122" points="129 1.5 15.5 66.5 79 103 192 38"></polygon>
                            <polygon id="XMLID_253_" opacity="0.1463" points="129 1.5 18.5 65 81.5 101.5 192 38"></polygon>
                            <polygon id="XMLID_252_" opacity="0.1707" points="129 1.5 21 63.5 84.5 100 192 38"></polygon>
                            <polygon id="XMLID_251_" opacity="0.1951" points="129 1.5 23.5 62 87 98.5 192 38"></polygon>
                            <polygon id="XMLID_250_" opacity="0.2195" points="129 1.5 26.5 60.5 89.5 97 192 38"></polygon>
                            <polygon id="XMLID_249_" opacity="0.2439" points="129 1.5 29 59 92.5 95.5 192 38"></polygon>
                            <polygon id="XMLID_248_" opacity="0.2683" points="129 1.5 31.5 57.5 95 94 192 38"></polygon>
                            <polygon id="XMLID_247_" opacity="0.2927" points="129 1.5 34.5 56 97.5 92.5 192 38"></polygon>
                            <polygon id="XMLID_246_" opacity="0.3171" points="129 1.5 37 54.5 100.5 91 192 38"></polygon>
                            <polygon id="XMLID_245_" opacity="0.3415" points="129 1.5 40 53 103 89.5 192 38"></polygon>
                            <polygon id="XMLID_244_" opacity="0.3659" points="129 1.5 42.5 51.5 105.5 88 192 38"></polygon>
                            <polygon id="XMLID_243_" opacity="0.3902" points="129 1.5 45 49.5 108.5 86.5 192 38"></polygon>
                            <polygon id="XMLID_242_" opacity="0.4146" points="129 1.5 48 48 111 84.5 192 38"></polygon>
                            <polygon id="XMLID_241_" opacity="0.439" points="129 1.5 50.5 46.5 114 83 192 38"></polygon>
                            <polygon id="XMLID_240_" opacity="0.4634" points="129 1.5 53 45 116.5 81.5 192 38"></polygon>
                            <polygon id="XMLID_239_" opacity="0.4878" points="129 1.5 56 43.5 119 80 192 38"></polygon>
                            <polygon id="XMLID_238_" opacity="0.5122" points="129 1.5 58.5 42 122 78.5 192 38"></polygon>
                            <polygon id="XMLID_237_" opacity="0.5366" points="129 1.5 61 40.5 124.5 77 192 38"></polygon>
                            <polygon id="XMLID_236_" opacity="0.561" points="129 1.5 64 39 127 75.5 192 38"></polygon>
                            <polygon id="XMLID_235_" opacity="0.5854" points="129 1.5 66.5 37.5 130 74 192 38"></polygon>
                            <polygon id="XMLID_234_" opacity="0.6098" points="129 1.5 69.5 36 132.5 72.5 192 38"></polygon>
                            <polygon id="XMLID_233_" opacity="0.6341" points="129 1.5 72 34.5 135 71 192 38"></polygon>
                            <polygon id="XMLID_232_" opacity="0.6585" points="129 1.5 74.5 32.5 138 69.5 192 38"></polygon>
                            <polygon id="XMLID_231_" opacity="0.6829" points="129 1.5 77.5 31 140.5 67.5 192 38"></polygon>
                            <polygon id="XMLID_230_" opacity="0.7073" points="129 1.5 80 29.5 143.5 66 192 38"></polygon>
                            <polygon id="XMLID_229_" opacity="0.7317" points="129 1.5 82.5 28 146 64.5 192 38"></polygon>
                            <polygon id="XMLID_228_" opacity="0.7561" points="129 1.5 85.5 26.5 148.5 63 192 38"></polygon>
                            <polygon id="XMLID_227_" opacity="0.7805" points="129 1.5 88 25 151.5 61.5 192 38"></polygon>
                            <polygon id="XMLID_226_" opacity="0.8049" points="129 1.5 90.5 23.5 154 60 192 38"></polygon>
                            <polygon id="XMLID_225_" opacity="0.8293" points="129 1.5 93.5 22 156.5 58.5 192 38"></polygon>
                            <polygon id="XMLID_224_" opacity="0.8537" points="129 1.5 96 20.5 159.5 57 192 38"></polygon>
                            <polygon id="XMLID_223_" opacity="0.878" points="129 1.5 98.5 19 162 55.5 192 38"></polygon>
                            <polygon id="XMLID_222_" opacity="0.9024" points="129 1.5 101.5 17.5 164.5 54 192 38"></polygon>
                            <polygon id="XMLID_221_" opacity="0.9268" points="129 1.5 104 16 167.5 52.5 192 38"></polygon>
                            <polygon id="XMLID_220_" opacity="0.9512" points="129 1.5 107 14 170 51 192 38"></polygon>
                            <polygon id="XMLID_219_" opacity="0.9756" points="129 1.5 109.5 12.5 172.5 49 192 38"></polygon>
                            <polygon id="XMLID_808_" points="129 1.5 112 11 175.5 47.5 192 38"></polygon>
                        </g>
                        <g opacity="0.3" transform="translate(120.000000, 280.000000)" fill="#3C5185">
                            <polygon id="XMLID_807_" fill-opacity="0" points="130.5 0.5 4 73.5 67.5 110 194 37"></polygon>
                            <polygon id="XMLID_218_" opacity="0.02439" points="130.5 0.5 7 72 70 108.5 194 37"></polygon>
                            <polygon id="XMLID_217_" opacity="0.04878" points="130.5 0.5 9.5 70.5 73 107 194 37"></polygon>
                            <polygon id="XMLID_216_" opacity="0.073171" points="130.5 0.5 12 68.5 75.5 105.5 194 37"></polygon>
                            <polygon id="XMLID_215_" opacity="0.097561" points="130.5 0.5 15 67 78 103.5 194 37"></polygon>
                            <polygon id="XMLID_214_" opacity="0.122" points="130.5 0.5 17.5 65.5 81 102 194 37"></polygon>
                            <polygon id="XMLID_213_" opacity="0.1463" points="130.5 0.5 20 64 83.5 100.5 194 37"></polygon>
                            <polygon id="XMLID_212_" opacity="0.1707" points="130.5 0.5 23 62.5 86 99 194 37"></polygon>
                            <polygon id="XMLID_211_" opacity="0.1951" points="130.5 0.5 25.5 61 89 97.5 194 37"></polygon>
                            <polygon id="XMLID_210_" opacity="0.2195" points="130.5 0.5 28.5 59.5 91.5 96 194 37"></polygon>
                            <polygon id="XMLID_209_" opacity="0.2439" points="130.5 0.5 31 58 94 94.5 194 37"></polygon>
                            <polygon id="XMLID_208_" opacity="0.2683" points="130.5 0.5 33.5 56.5 97 93 194 37"></polygon>
                            <polygon id="XMLID_207_" opacity="0.2927" points="130.5 0.5 36.5 55 99.5 91.5 194 37"></polygon>
                            <polygon id="XMLID_206_" opacity="0.3171" points="130.5 0.5 39 53.5 102.5 90 194 37"></polygon>
                            <polygon id="XMLID_205_" opacity="0.3415" points="130.5 0.5 41.5 52 105 88.5 194 37"></polygon>
                            <polygon id="XMLID_204_" opacity="0.3659" points="130.5 0.5 44.5 50 107.5 86.5 194 37"></polygon>
                            <polygon id="XMLID_203_" opacity="0.3902" points="130.5 0.5 47 48.5 110.5 85 194 37"></polygon>
                            <polygon id="XMLID_202_" opacity="0.4146" points="130.5 0.5 49.5 47 113 83.5 194 37"></polygon>
                            <polygon id="XMLID_201_" opacity="0.439" points="130.5 0.5 52.5 45.5 115.5 82 194 37"></polygon>
                            <polygon id="XMLID_200_" opacity="0.4634" points="130.5 0.5 55 44 118.5 80.5 194 37"></polygon>
                            <polygon id="XMLID_199_" opacity="0.4878" points="130.5 0.5 57.5 42.5 121 79 194 37"></polygon>
                            <polygon id="XMLID_198_" opacity="0.5122" points="130.5 0.5 60.5 41 123.5 77.5 194 37"></polygon>
                            <polygon id="XMLID_197_" opacity="0.5366" points="130.5 0.5 63 39.5 126.5 76 194 37"></polygon>
                            <polygon id="XMLID_196_" opacity="0.561" points="130.5 0.5 66 38 129 74.5 194 37"></polygon>
                            <polygon id="XMLID_195_" opacity="0.5854" points="130.5 0.5 68.5 36.5 131.5 73 194 37"></polygon>
                            <polygon id="XMLID_194_" opacity="0.6098" points="130.5 0.5 71 35 134.5 71.5 194 37"></polygon>
                            <polygon id="XMLID_193_" opacity="0.6341" points="130.5 0.5 74 33 137 70 194 37"></polygon>
                            <polygon id="XMLID_192_" opacity="0.6585" points="130.5 0.5 76.5 31.5 140 68 194 37"></polygon>
                            <polygon id="XMLID_191_" opacity="0.6829" points="130.5 0.5 79 30 142.5 66.5 194 37"></polygon>
                            <polygon id="XMLID_190_" opacity="0.7073" points="130.5 0.5 82 28.5 145 65 194 37"></polygon>
                            <polygon id="XMLID_189_" opacity="0.7317" points="130.5 0.5 84.5 27 148 63.5 194 37"></polygon>
                            <polygon id="XMLID_188_" opacity="0.7561" points="130.5 0.5 87 25.5 150.5 62 194 37"></polygon>
                            <polygon id="XMLID_187_" opacity="0.7805" points="130.5 0.5 90 24 153 60.5 194 37"></polygon>
                            <polygon id="XMLID_186_" opacity="0.8049" points="130.5 0.5 92.5 22.5 156 59 194 37"></polygon>
                            <polygon id="XMLID_185_" opacity="0.8293" points="130.5 0.5 95.5 21 158.5 57.5 194 37"></polygon>
                            <polygon id="XMLID_184_" opacity="0.8537" points="130.5 0.5 98 19.5 161 56 194 37"></polygon>
                            <polygon id="XMLID_183_" opacity="0.878" points="130.5 0.5 100.5 18 164 54.5 194 37"></polygon>
                            <polygon id="XMLID_182_" opacity="0.9024" points="130.5 0.5 103.5 16.5 166.5 53 194 37"></polygon>
                            <polygon id="XMLID_181_" opacity="0.9268" points="130.5 0.5 106 14.5 169.5 51.5 194 37"></polygon>
                            <polygon id="XMLID_180_" opacity="0.9512" points="130.5 0.5 108.5 13 172 49.5 194 37"></polygon>
                            <polygon id="XMLID_179_" opacity="0.9756" points="130.5 0.5 111.5 11.5 174.5 48 194 37"></polygon>
                            <polygon id="XMLID_806_" points="130.5 0.5 114 10 177.5 46.5 194 37"></polygon>
                        </g>
                        <g opacity="0.3" transform="translate(235.000000, 215.000000)" fill="#3C5185">
                            <polygon id="XMLID_805_" fill-opacity="0" points="126.5 2.5 0 75.5 63.5 112 190 39"></polygon>
                            <polygon id="XMLID_178_" opacity="0.02439" points="126.5 2.5 3 74 66 110.5 190 39"></polygon>
                            <polygon id="XMLID_177_" opacity="0.04878" points="126.5 2.5 5.5 72.5 69 109 190 39"></polygon>
                            <polygon id="XMLID_176_" opacity="0.073171" points="126.5 2.5 8 71 71.5 107.5 190 39"></polygon>
                            <polygon id="XMLID_175_" opacity="0.097561" points="126.5 2.5 11 69.5 74 106 190 39"></polygon>
                            <polygon id="XMLID_174_" opacity="0.122" points="126.5 2.5 13.5 67.5 77 104 190 39"></polygon>
                            <polygon id="XMLID_173_" opacity="0.1463" points="126.5 2.5 16 66 79.5 102.5 190 39"></polygon>
                            <polygon id="XMLID_172_" opacity="0.1707" points="126.5 2.5 19 64.5 82 101 190 39"></polygon>
                            <polygon id="XMLID_171_" opacity="0.1951" points="126.5 2.5 21.5 63 85 99.5 190 39"></polygon>
                            <polygon id="XMLID_170_" opacity="0.2195" points="126.5 2.5 24 61.5 87.5 98 190 39"></polygon>
                            <polygon id="XMLID_169_" opacity="0.2439" points="126.5 2.5 27 60 90 96.5 190 39"></polygon>
                            <polygon id="XMLID_168_" opacity="0.2683" points="126.5 2.5 29.5 58.5 93 95 190 39"></polygon>
                            <polygon id="XMLID_167_" opacity="0.2927" points="126.5 2.5 32.5 57 95.5 93.5 190 39"></polygon>
                            <polygon id="XMLID_166_" opacity="0.3171" points="126.5 2.5 35 55.5 98 92 190 39"></polygon>
                            <polygon id="XMLID_165_" opacity="0.3415" points="126.5 2.5 37.5 54 101 90.5 190 39"></polygon>
                            <polygon id="XMLID_164_" opacity="0.3659" points="126.5 2.5 40.5 52.5 103.5 89 190 39"></polygon>
                            <polygon id="XMLID_163_" opacity="0.3902" points="126.5 2.5 43 50.5 106.5 87.5 190 39"></polygon>
                            <polygon id="XMLID_162_" opacity="0.4146" points="126.5 2.5 45.5 49 109 85.5 190 39"></polygon>
                            <polygon id="XMLID_161_" opacity="0.439" points="126.5 2.5 48.5 47.5 111.5 84 190 39"></polygon>
                            <polygon id="XMLID_160_" opacity="0.4634" points="126.5 2.5 51 46 114.5 82.5 190 39"></polygon>
                            <polygon id="XMLID_159_" opacity="0.4878" points="126.5 2.5 53.5 44.5 117 81 190 39"></polygon>
                            <polygon id="XMLID_158_" opacity="0.5122" points="126.5 2.5 56.5 43 119.5 79.5 190 39"></polygon>
                            <polygon id="XMLID_157_" opacity="0.5366" points="126.5 2.5 59 41.5 122.5 78 190 39"></polygon>
                            <polygon id="XMLID_156_" opacity="0.561" points="126.5 2.5 62 40 125 76.5 190 39"></polygon>
                            <polygon id="XMLID_155_" opacity="0.5854" points="126.5 2.5 64.5 38.5 127.5 75 190 39"></polygon>
                            <polygon id="XMLID_154_" opacity="0.6098" points="126.5 2.5 67 37 130.5 73.5 190 39"></polygon>
                            <polygon id="XMLID_153_" opacity="0.6341" points="126.5 2.5 70 35.5 133 72 190 39"></polygon>
                            <polygon id="XMLID_152_" opacity="0.6585" points="126.5 2.5 72.5 34 136 70.5 190 39"></polygon>
                            <polygon id="XMLID_151_" opacity="0.6829" points="126.5 2.5 75 32 138.5 69 190 39"></polygon>
                            <polygon id="XMLID_150_" opacity="0.7073" points="126.5 2.5 78 30.5 141 67 190 39"></polygon>
                            <polygon id="XMLID_149_" opacity="0.7317" points="126.5 2.5 80.5 29 144 65.5 190 39"></polygon>
                            <polygon id="XMLID_148_" opacity="0.7561" points="126.5 2.5 83 27.5 146.5 64 190 39"></polygon>
                            <polygon id="XMLID_147_" opacity="0.7805" points="126.5 2.5 86 26 149 62.5 190 39"></polygon>
                            <polygon id="XMLID_146_" opacity="0.8049" points="126.5 2.5 88.5 24.5 152 61 190 39"></polygon>
                            <polygon id="XMLID_145_" opacity="0.8293" points="126.5 2.5 91 23 154.5 59.5 190 39"></polygon>
                            <polygon id="XMLID_144_" opacity="0.8537" points="126.5 2.5 94 21.5 157 58 190 39"></polygon>
                            <polygon id="XMLID_143_" opacity="0.878" points="126.5 2.5 96.5 20 160 56.5 190 39"></polygon>
                            <polygon id="XMLID_142_" opacity="0.9024" points="126.5 2.5 99.5 18.5 162.5 55 190 39"></polygon>
                            <polygon id="XMLID_141_" opacity="0.9268" points="126.5 2.5 102 17 165 53.5 190 39"></polygon>
                            <polygon id="XMLID_140_" opacity="0.9512" points="126.5 2.5 104.5 15 168 52 190 39"></polygon>
                            <polygon id="XMLID_139_" opacity="0.9756" points="126.5 2.5 107.5 13.5 170.5 50 190 39"></polygon>
                            <polygon id="XMLID_804_" points="126.5 2.5 110 12 173.5 48.5 190 39"></polygon>
                        </g>
                        <g id="XMLID_331_" transform="translate(110.000000, 0.000000)">
                            <g id="XMLID_800_" transform="translate(210.000000, 25.000000)">
                                <polygon id="XMLID_803_" fill="url(#linearGradient-1)" points="3.5 40.5 68.5 3 132 40.5 68.5 78.5"></polygon>
                                <polygon id="XMLID_802_" fill="url(#linearGradient-2)" points="3.5 40.5 3.5 215 68.5 250.5 68.5 78.5"></polygon>
                                <polygon id="XMLID_801_" fill="url(#linearGradient-3)" points="132 40.5 132 212.5 68.5 250.5 68.5 78.5"></polygon>
                            </g>
                            <g id="XMLID_796_" transform="translate(105.000000, 120.000000)">
                                <polygon id="XMLID_799_" fill="#F6FAFD" points="4 39 69.5 1.5 133 39 69.5 77"></polygon>
                                <polygon id="XMLID_798_" fill="#E4EFFA" points="4 39 4 179.5 69.5 215 69.5 77"></polygon>
                                <polygon id="XMLID_797_" fill="#EFF6FC" points="133 39 133 177.5 69.5 215 69.5 77"></polygon>
                            </g>
                            <g id="XMLID_332_">
                                <polygon id="XMLID_795_" fill="#236CE4" points="1 38.5 66.5 1 130 38.5 66.5 76"></polygon>
                                <polygon id="XMLID_794_" fill="#0D439B" points="1 38.5 1 361.5 66.5 397 66.5 76"></polygon>
                                <polygon id="XMLID_793_" fill="#5A94F3" points="130 38.5 130 359.5 66.5 397 66.5 76"></polygon>
                            </g>
                        </g>
                    </g>
                    <g id="编组" transform="translate(75.000000, 205.000000)">
                        <path d="M131.5,10 L131.5,69.5 C131.5,73 129.5,76.5 126.5,78.5 L117,84.5 L111.5,105 C110.5,108 107.5,109.5 104.5,108 L90,100.5 L9.5,147 C5.5,149.5 0.5,146.5 0.5,142 L0.5,81.5 C0.5,78 2.5,74.5 5.5,72.5 L122.5,5 C126.5,2.5 131.5,5.5 131.5,10 Z" id="XMLID_970_" fill="#5A94F3"></path>
                        <path d="M4.5,144.5 L4.5,84 C4.5,80.5 6.5,77 9.5,75 L127,7.5 C128,7 129,6.5 130,6.5 C128.5,4.5 125,3.5 122.5,5 L5,72.5 C2,74.5 0,78 0,81.5 L0,142 C0,145.5 2.5,147.5 5.5,148 C5,147 4.5,145.5 4.5,144.5 Z" id="XMLID_5_" fill="#236CE4"></path>
                        <g transform="translate(15.000000, 35.000000)">
                            <path d="M85.5,3.5 L88.5,10.5 L97.5,5.5 C98,5.5 98,5.5 98,6 L92,17 L94,26.5 C94,27 94,27.5 93.5,27.5 L86,27 L78,36.5 C78,37 77.5,36.5 77.5,36 L78.5,25.5 L71.5,21.5 L71.5,21 L81,15.5 L85.5,3.5 C85.5,3.5 85.5,3.5 85.5,3.5 Z" id="XMLID_969_" fill="url(#linearGradient-4)"></path>
                            <path d="M52,23.5 L55,30.5 L64,25.5 C64.5,25.5 64.5,25.5 64.5,26 L58.5,37 L60.5,46.5 C60.5,47 60.5,47.5 60,47.5 L52.5,47 L44.5,56.5 C44.5,57 44,56.5 44,56 L45,45.5 L38,41.5 L38,41 L47.5,35.5 L52,23.5 C51.5,23 51.5,23 52,23.5 Z" id="XMLID_968_" fill="url(#linearGradient-5)"></path>
                            <path d="M18,43 L21,50 L30,45 C30.5,45 30.5,45 30.5,45.5 L24.5,56.5 L26.5,66 C26.5,66.5 26.5,67 26,67 L18.5,66.5 L10.5,76 C10.5,76.5 10,76 10,75.5 L11,65 L4,61 L4,60.5 L13.5,55 L18,43 C17.5,43 17.5,43 18,43 Z" id="XMLID_967_" fill="url(#linearGradient-6)"></path>
                        </g>
                    </g>
                    <g id="编组" transform="translate(335.000000, 675.000000)">
                        <path d="M17.5,38 C38.5,26 73,26 94,38 C115,50 115,70 94,82 C73,94 38.5,94 17.5,82 C-3.5,70 -3.5,50 17.5,38 Z" id="XMLID_961_" fill="url(#radialGradient-7)"></path>
                        <path d="M97.5,44.5 L93,44.5 C91,42.5 88.5,40.5 85.5,38.5 C69,29 42.5,29 26.5,38.5 C23.5,40.5 21,42.5 19,44.5 L14.5,44.5 L14.5,55.5 L14.5,55.5 C14.5,61.5 18.5,68 26.5,72.5 C43,82 69.5,82 85.5,72.5 C93.5,68 97.5,61.5 97.5,55.5 L97.5,55.5 L97.5,44.5 Z" id="XMLID_960_" fill="url(#linearGradient-8)"></path>
                        <path d="M26.5,27.5 C43,18 69.5,18 85.5,27.5 C102,37 102,52.5 85.5,61.5 C69,71 42.5,71 26.5,61.5 C10,52 10,36.5 26.5,27.5 Z" id="XMLID_959_" fill="#FFFFFF"></path>
                        <path d="M97.5,44.5 L97.5,44.5 L97.5,35 L94.5,35 C92.5,32 89.5,29.5 85.5,27.5 C74,21 81.5,46 85.5,61.5 L85.5,72.5 C93.5,68 97.5,62 97.5,56 L97.5,44.5 L97.5,44.5 Z" id="XMLID_958_" fill="#FFDA6A"></path>
                        <path d="M85.5,8.5 C69,-1 42.5,-1 26.5,8.5 L56,28.5 L85.5,8.5 Z" id="XMLID_957_" fill="url(#linearGradient-9)"></path>
                        <polygon id="XMLID_956_" fill="url(#linearGradient-10)" points="26.5 8.5 26.5 27.5 56 47.5 56 28.5"></polygon>
                        <polygon id="XMLID_953_" fill="#3C5185" points="56 28.5 85.5 8.5 85.5 27.5 56 47.5"></polygon>
                        <path d="M85.5,18 C102,27.5 102,43 85.5,52 L56,38 L85.5,18 Z" id="XMLID_952_" fill="url(#linearGradient-11)"></path>
                        <polygon id="XMLID_950_" fill="#FFCD39" points="56 38 56 47.5 85.5 61.5 85.5 52"></polygon>
                    </g>
                    <g id="编组" transform="translate(475.000000, 375.000000)">
                        <path d="M56,83.5 L37.5,62 C35,59.5 35.5,55 38,53 C40.5,50.5 45,51 47,53.5 L65.5,75 C68,77.5 71,77 71.5,76.5 C72.5,76 75,75 75.5,71.5 L78,51.5 C78.5,48 81.5,45.5 85,46 C88.5,46.5 91,49.5 90.5,53 L88,73 C87,80.5 82,86.5 75,88.5 C73,89 71.5,89.5 69.5,89.5 C64.5,90 59.5,87.5 56,83.5 Z" id="XMLID_5875_" fill="#F2B1B5"></path>
                        <circle id="XMLID_5874_" fill="#F2B1B5" cx="43" cy="56.5" r="8"></circle>
                        <path d="M1.5,57 L31.5,88 C33,89.5 35,90 37,89.5 L63,83 C64,82.5 64.5,81.5 63.5,80.5 L33,49.5 C31.5,48 29.5,47.5 27.5,48 L1,54 C1,53.5 0.5,56 1.5,57 Z" id="XMLID_5873_" fill="url(#linearGradient-12)"></path>
                        <path d="M1.5,54.5 L31.5,85.5 C33,87 35,87.5 37,87 L63,80.5 C64,80 64.5,79 63.5,78 L33,47 C31.5,45.5 29.5,45 27.5,45.5 L2,52.5 C1,52.5 0.5,53.5 1.5,54.5 Z" id="XMLID_5872_" fill="#3C5185"></path>
                        <path d="M3,55 L31.5,84 C33,85.5 34.5,86 36.5,85.5 L60.5,79 C61.5,78.5 62,77.5 61,76.5 L32.5,47.5 C31,46 29,45.5 27.5,46 L3.5,52.5 C3,53 2.5,54.5 3,55 Z" id="XMLID_5871_" fill="#FFFFFF"></path>
                        <g id="XMLID_5869_" transform="translate(40.000000, 55.000000)" fill="#F2B1B5">
                            <path d="M8,3.5 L6.5,2 C5.5,1 3.5,0.5 2.5,1.5 C1.5,2.5 1,4.5 2,5.5 L3.5,7.5 L8,3.5 Z" id="XMLID_5870_"></path>
                        </g>
                        <path d="M64.5,307.5 L37.5,294 C35,292.5 35,289 37.5,287.5 L38,287.5 C42.5,285 48,285 53,286.5 L73,291.5 C75.5,292 77,294 77,296.5 L77,301 C77,303 76,304.5 74.5,305.5 L70,308 C68.5,308 66.5,308 64.5,307.5 Z" id="XMLID_5868_" fill="#3C5185"></path>
                        <path d="M51,293 L51,293 C55.5,291 58.5,288 62.5,289.5 L73.5,291.5 L75,295 C75,296.5 74,298 72.5,299 L68.5,301.5 C67,302.5 65,302.5 63.5,301.5 L50.5,294.5 C50,294.5 50,294 49.5,294 C50.5,293.5 51,293 51,293 Z" id="XMLID_5867_" fill="#F2B1B5"></path>
                        <path d="M92.5,292 L65.5,278.5 C63,277 63,273.5 65.5,272 L66,272 C70.5,269.5 76,269.5 81,271 L101,276 C103.5,276.5 105,278.5 105,281 L105,285.5 C105,287.5 104,289 102.5,290 L98,292.5 C96.5,293 94,293 92.5,292 Z" id="XMLID_5866_" fill="#3C5185"></path>
                        <path d="M79,277.5 L79,277.5 C83.5,275.5 86.5,272.5 90.5,274 L101.5,276 L103,279.5 C103,281 102,282.5 100.5,283.5 L96.5,286 C95,287 93,287 91.5,286 L78.5,279 C78,279 78,278.5 77.5,278.5 C78.5,278 78.5,278 79,277.5 Z" id="XMLID_5865_" fill="#F2B1B5"></path>
                        <g id="XMLID_5863_" transform="translate(80.000000, 170.000000)" fill="#F2B1B5">
                            <path d="M16.5,114.5 L16.5,114.5 C21,114.5 23,110.5 23,106.5 L21.5,58 L24.5,9.5 C24.5,5 21,1.5 17,1.5 C12.5,1.5 2.5,5 2.5,9 L7.5,58 L9,107 C8.5,111.5 12,114.5 16.5,114.5 Z" id="XMLID_5864_"></path>
                        </g>
                        <g id="XMLID_5861_" transform="translate(55.000000, 170.000000)" fill="#F2B1B5">
                            <path d="M12.5,130.5 C13,130.5 13,130.5 13.5,130.5 C18,130 19.5,126 19,122 L18.5,60 L30,3 C31,-1.5 20,4 15.5,3.5 C11,2.5 2,11 1.5,15.5 L2.5,59.5 L4.5,124 C5,127.5 8.5,130.5 12.5,130.5 Z" id="XMLID_5862_"></path>
                        </g>
                        <path d="M99,131 L101,137.5 C102.5,141 103,145 102.5,149 L102,161.5 L110.5,203 C103,218.5 65.5,229 51.5,218.5 L54.5,164 L54.5,164 C53.5,159 53,154.5 53.5,149.5 L54.5,140 L99,131 Z" id="XMLID_5860_" fill="#4D5068"></path>
                        <path d="M77.5,46 L73.5,48 C61,55 53.5,63.5 53.5,78 L52,82 C50,87 49.5,92.5 51,97.5 L53.5,105 L53.5,153 C65,161 95.5,150 101.5,137.5 L99.5,126.5 C98.5,119.5 98,116 98.5,109 L100.5,60.5 C101,48 88,40 77.5,46 Z" id="XMLID_5859_" fill="#3C5185"></path>
                        <path d="M77.5,46 L73.5,48 C72.5,48.5 71.5,49 70.5,50 C64.5,54 59.5,58.5 56.5,64 C54.5,68 53.5,72.5 53.5,78 L53.5,113.5 L45,240 C50,243.5 64,243 78,240 C79.5,239.5 81.5,224.5 83,224 C84.5,223.5 86,238.5 87,238 C101.5,234 114.5,228.5 117.5,222.5 L99.5,126 C98.5,119 98,115.5 98.5,108.5 L100.5,60 C101,48 88,40 77.5,46 Z" id="XMLID_5858_" fill="url(#linearGradient-13)"></path>
                        <path d="M78,50 L78,50 C84,50 89.5,45 89.5,38.5 L89.5,12 L56.5,12 L56.5,28.5 C56,40 66,50 78,50 Z" id="XMLID_5857_" fill="#F2B1B5"></path>
                        <path d="M78,59.5 L78,59.5 C82,59.5 85,56.5 85,52.5 L85,34 C85,32.5 84,31.5 82.5,31.5 L73.5,31.5 C72,31.5 71,32.5 71,34 L71,52.5 C71.5,56 74.5,59.5 78,59.5 Z" id="XMLID_5856_" fill="#F2B1B5"></path>
                        <path d="M53.5,100.5 C54.5,100 57,99 57,96 L59.5,76 C60,72.5 63,70 66.5,70.5 C70,71 70,74.5 70,78 L69.5,97.5 C68.5,105 63.5,111 56.5,113 C55.5,113.5 54.5,113.5 53,113.5 L53.5,100.5 L53.5,100.5 Z" id="XMLID_5855_" fill="#231F20" opacity="0.3"></path>
                        <path d="M37.5,104 L19,82.5 C16.5,80 17,75.5 19.5,73.5 C22,71 26.5,71.5 28.5,74 L47,95.5 C49.5,98 52.5,97.5 53,97 C54,96.5 56.5,95.5 57,92 L59.5,72 C60,68.5 63,66 66.5,66.5 C70,67 72.5,70 72,73.5 L69.5,93.5 C68.5,101 63.5,107 56.5,109 C54.5,109.5 53,110 51,110 C46,110 41,108 37.5,104 Z" id="XMLID_5853_" fill="#F2B1B5"></path>
                        <g id="XMLID_5851_" transform="translate(15.000000, 70.000000)" fill="#F2B1B5">
                            <path d="M16.5,7.5 L13.5,4 C11,1.5 7,1 4.5,3.5 C2,6 1.5,10 4,12.5 L7.5,17 L16.5,7.5 Z" id="XMLID_5852_"></path>
                        </g>
                        <circle id="XMLID_67_" fill="#F2B1B5" cx="24" cy="77" r="8"></circle>
                        <g id="XMLID_66_" transform="translate(50.000000, 0.000000)" fill="url(#linearGradient-14)">
                            <path d="M4,5 C9.5,-1.5 23,0.5 30.5,2.5 C40.5,6 47.5,12.5 47,24 C47,30 44,37.5 39.5,41.5 C34,46.5 27,45 23,39.5 C21,37 20,34 17.5,32 C15.5,31 12.5,30.5 11.5,28.5 C11,27 11.5,25 12.5,23 C13,21.5 13.5,19 12,18 C10.5,17 8.5,17.5 7,16.5 C6,15.5 4.5,14 4,13 C1,10.5 1.5,8 4,5 Z" id="XMLID_409_"></path>
                        </g>
                        <g id="XMLID_3_" transform="translate(50.000000, 0.000000)" fill="#F1CA88">
                            <path d="M25,40 C23,37.5 22,34.5 19.5,32.5 C17.5,31.5 14.5,31 13.5,29 C13,27.5 13.5,25.5 14.5,23.5 C15,22 15.5,19.5 14,18.5 C12.5,17.5 10.5,18 9,17 C8,16 6.5,14.5 6,13.5 C3.5,10.5 4,8 6.5,5.5 C9,2.5 13.5,1 18,1 C12.5,1 7,2 4,5.5 C1.5,8 1.5,11 3.5,13.5 C4.5,14.5 5.5,16 6.5,17 C8,18 10,17.5 11.5,18.5 C13,19.5 12.5,22 12,23.5 C11.5,25 10.5,27 11,29 C12,31 15,31.5 17,32.5 C19.5,34 20.5,37.5 22.5,40 C25,43.5 29,45.5 32.5,45 C30,44.5 27,43 25,40 Z" id="XMLID_410_"></path>
                        </g>
                        <g id="XMLID_65_" transform="translate(85.000000, 15.000000)" fill="url(#linearGradient-15)">
                            <path d="M1.5,12 L3,11.5 C4,7.5 7.5,4 11.5,2.5 C18.5,-6.66133815e-16 27.5,4 31,10.5 C34,16.5 30.5,27.5 27.5,33 C22,44 11,54 17,67 C17.5,68.5 18.5,70 17.5,71 C15.5,74 11.5,63 11,62 C8.5,56.5 5.5,51.5 6.5,45 C7,40.5 9,36.5 9.5,32.5 C10.5,28.5 10,23.5 6.5,20.5 C5,19 2.5,18 1,16.5 C0.5,15.5 0.5,13.5 1.5,12 Z" id="XMLID_411_"></path>
                        </g>
                        <g id="XMLID_63_" opacity="0.3" transform="translate(85.000000, 25.000000)" fill="#231F20">
                            <path d="M1.5,3 C3,5 5,2.5 7,4 C11,6.5 14.5,11.5 14,16 C13.5,20.5 11.5,26 11.5,30.5 C11.5,36 12.5,48 15.5,52.5 C15,55.5 15.5,53.5 17,57 C17.5,58.5 18.5,60 17.5,61 C15.5,64 11.5,53 11,52 C8.5,46.5 5.5,41.5 6.5,35 C7,30.5 9,26.5 9.5,22.5 C10.5,18.5 10,13.5 6.5,10.5 C5,9 2.5,8 1,6.5 C0.5,5.5 0.5,4 1.5,3 C1,2.5 1,2.5 1.5,3 Z" id="XMLID_412_"></path>
                        </g>
                        <path d="M85,29 L85,29 C86.5,30 86.5,28.5 87,27.5 C87.5,26 88.5,24.5 89.5,23 C90,22 91,21 90,20.5 L89.5,20.5 C88.5,20 87.5,20 87,21 C86,22.5 85,24.5 84,26.5 C84,27 84,28.5 85,29 Z" id="XMLID_58_" fill="#3C5185"></path>
                        <path d="M51.5,111 C46,111 40.5,108.5 36.5,104 L25,91 C23.5,89.5 32.5,77 34,78.5 L48,94 C49,95 50,95.5 51.5,95.5 C52,95.5 52.5,95.5 53,95.5 C53.5,95.5 56,94.5 56.5,91.5 L59,71.5 C59.5,68 62.5,65 66.5,65 C67,65 67,65 67.5,65 C69.5,65.5 71,66.5 72.5,68 C73.5,69.5 74,71.5 74,73.5 L71.5,93.5 C70.5,101.5 65,107.5 57.5,110 C55.5,111 53.5,111 51.5,111 Z" id="XMLID_2_" fill="url(#linearGradient-16)"></path>
                    </g>
                    <g id="编组" transform="translate(0.000000, 505.000000)">
                        <g transform="translate(200.000000, 120.000000)">
                            <path d="M24,16 C50.5,0.5 94,0.5 120.5,16 C147,31.5 147,56.5 120.5,71.5 C94,87 50.5,87 24,71.5 C-2.5,56.5 -2.5,31.5 24,16 Z" id="XMLID_255_" fill="url(#radialGradient-17)"></path>
                            <path d="M120,29 L115,29 C113,26.5 110,24 106,22 C87,11 56,11 37,22 C33.5,24 30.5,26.5 28,29 L22.5,29 L22.5,42 L22.5,42 C22.5,49.5 27,56.5 36.5,62 C55.5,73 86.5,73 105.5,62 C115,56.5 120,49 119.5,42 L119.5,42 L119.5,29 L120,29 Z" id="XMLID_254_" fill="url(#linearGradient-18)"></path>
                            <path d="M37,9 C56,-2 87,-2 106,9 C125,20 125,38 106,49 C87,60 56,60 37,49 C18,38 18,20 37,9 Z" id="XMLID_253_" fill="#F6F8FB"></path>
                            <g id="XMLID_252_" transform="translate(25.000000, 0.000000)" fill="url(#linearGradient-19)">
                                <path d="M46.5,53.5 C35.5,53.5 25,51 17,46.5 C9,42 4.5,35.5 4.5,29 C4.5,22.5 9,16 17,11.5 C25,7 35.5,4.5 46.5,4.5 C57.5,4.5 68,7 76,11.5 L75,13.5 C67.5,9 57.5,7 47,7 C36.5,7 26.5,9.5 19,13.5 C11.5,17.5 7.5,23.5 7.5,29 C7.5,35 11.5,40.5 19,44.5 C26.5,49 36.5,51 47,51 L47,51 L46.5,53.5 L46.5,53.5 Z" id="XMLID_343_"></path>
                            </g>
                            <path d="M62,17.5 L67,13.5 L74.5,18 L72,20 L55,28 L52.5,26.5 L69,19 L66.5,17.5 L64.5,19 L62,17.5 Z M73.5,26 C74.5,25.5 75,25.5 75.5,25 C76,24.5 76.5,24 76.5,23.5 C76.5,23 76.5,23 76,22.5 C75.5,22 74,22.5 72,23 L72,20.5 C73.5,20 75,19.5 76,19.5 C77,19.5 78,19.5 79,20 C80,20.5 80,21.5 80,22.5 C80,23.5 79,24.5 77.5,26 C76.5,26.5 76,27 75,27.5 C74,28 72.5,28.5 71,29 L66.5,30 L70.5,32.5 L67.5,35 L60.5,30.5 L63,28.5 L70.5,26.5 C71.5,26.5 73,26.5 73.5,26 Z M94,30 L71.5,38 L69,36.5 L91.5,28.5 L94,30 Z M82,40 C81,40.5 80,41 79,41.5 C78,41.5 77,41.5 76.5,41.5 C76,41 75.5,40.5 76,40 C76,39.5 76.5,38.5 77.5,38 C78.5,37.5 79.5,37 80.5,36.5 C81.5,36.5 82.5,36.5 83,36.5 C83.5,37 84,37.5 83.5,38 C83.5,39 83,39.5 82,40 Z M78.5,39.5 L78.5,40 L79,40 C79.5,40 79.5,39.5 80,39.5 C80.5,39 80.5,39 80.5,38.5 L80.5,38 L80,38 C79.5,38 79.5,38.5 79,38.5 C79,39 78.5,39 78.5,39.5 Z M85,29.5 C84,30 83,30.5 82,31 C81,31 80,31 79.5,31 C79,30.5 78.5,30 79,29.5 C79,29 79.5,28 80.5,27.5 C81.5,27 82.5,26.5 83.5,26 C84.5,26 85.5,26 86,26 C86.5,26.5 87,27 86.5,27.5 C86.5,28 86,28.5 85,29.5 Z M82,28.5 L82,29 L82.5,29 C83,29 83,28.5 83.5,28.5 C84,28 84,28 84,27.5 L84,27 L83.5,27 C83,27 83,27.5 82.5,27.5 C82,28 82,28 82,28.5 Z" id="XMLID_249_" fill="#3C5185"></path>
                        </g>
                        <g>
                            <path d="M21,18.5 C47.5,3 91,3 117.5,18.5 C144,34 144,59 117.5,74 C91,89.5 47.5,89.5 21,74 C-5.5,58.5 -5.5,33.5 21,18.5 Z" id="XMLID_265_" fill="url(#radialGradient-20)"></path>
                            <path d="M117,31 L111.5,31 C109.5,28.5 106.5,26 102.5,24 C83.5,13 52.5,13 33.5,24 C30,26 27,28.5 24.5,31 L19,31 L19,44 L19,44 C19,51.5 23.5,58.5 33,64 C52,75 83,75 102,64 C111.5,58.5 116.5,51 116,44 L116,44 L116,31 L117,31 Z" id="XMLID_264_" fill="url(#linearGradient-21)"></path>
                            <path d="M33.5,11 C52.5,1.33226763e-15 83.5,1.33226763e-15 102.5,11 C121.5,22 121.5,40 102.5,51 C83.5,62 52.5,62 33.5,51 C14.5,40 14.5,22 33.5,11 Z" id="XMLID_263_" fill="#F6F8FB"></path>
                            <g id="XMLID_260_" transform="translate(25.000000, 5.000000)" fill="url(#linearGradient-22)">
                                <path d="M13.5,43.5 C5.5,39 1,32.5 1,26 C1,19.5 5.5,13 13.5,8.5 C21.5,4 32,1.5 43,1.5 L43,4 C32.5,4 22.5,6.5 15,10.5 C7.5,14.5 3.5,20.5 3.5,26 C3.5,32 7.5,37.5 15,41.5 L13.5,43.5 Z" id="XMLID_335_"></path>
                            </g>
                            <path d="M60.5,22.5 C61.5,22 62,22 62.5,21.5 C63,21 63.5,20.5 63.5,20 C63.5,19.5 63.5,19.5 63,19 C62.5,18.5 61,19 59,19.5 L59,17 C60.5,16.5 62,16 63,16 C64,16 65,16 66,16.5 C67,17 67,18 67,19 C67,20 66,21 64.5,22.5 C63.5,23 63,23.5 62,24 C61,24.5 59.5,25 58,25.5 L53.5,27 L57.5,29.5 L54.5,32 L47.5,27.5 L50,25.5 L57.5,23.5 C58.5,23.5 59.5,23 60.5,22.5 Z M77.5,24.5 L74.5,27 L70.5,24.5 L68,26.5 C68.5,26.5 69,26.5 69,27 C70,27.5 70.5,28.5 70,29.5 C70,30.5 69,32 67.5,33 C66,34 64.5,35 62.5,35.5 C61,36 59.5,35.5 58.5,35 C57,34 56.5,33 57.5,31 L61,29.5 L61,30 C61,30 61,30.5 61,31 C61,31.5 61.5,32 61.5,32 C62,32 62.5,32.5 63,32 C63.5,32 64.5,31.5 65,31 C65.5,30.5 66,30 66,29.5 C66,29 66,28.5 65.5,28.5 C65,28 64,28 63,28 L63.5,26 L71,20 L77.5,24.5 Z M89.5,32 L67,40 L64.5,38.5 L87,30.5 L89.5,32 Z M77.5,42 C76.5,42.5 75.5,43 74.5,43.5 C73.5,43.5 72.5,43.5 72,43.5 C71.5,43 71,42.5 71.5,42 C71.5,41.5 72,40.5 73,40 C74,39.5 75,39 76,38.5 C77,38.5 78,38.5 78.5,38.5 C79,39 79.5,39.5 79,40 C78.5,40.5 78,41.5 77.5,42 Z M74,41 L74,41.5 L74.5,41.5 C75,41.5 75,41 75.5,41 C76,40.5 76,40.5 76,40 L76,39.5 L75.5,39.5 C75,39.5 75,40 74.5,40 C74,40.5 74,41 74,41 Z M80.5,31.5 C79.5,32 78.5,32.5 77.5,33 C76.5,33 75.5,33 75,33 C74.5,32.5 74,32 74.5,31.5 C74.5,31 75,30 76,29.5 C77,29 78,28.5 79,28 C80,28 81,28 81.5,28 C82,28.5 82.5,29 82,29.5 C82,30 81.5,30.5 80.5,31.5 Z M77,30.5 C77,30.5 77,31 77,30.5 C77.5,31 77.5,31 78,31 C78.5,31 78.5,30.5 79,30.5 C79.5,30 79.5,30 79.5,29.5 L79.5,29 L79,29 C78.5,29 78.5,29.5 78,29.5 C77.5,30 77,30 77,30.5 Z" id="XMLID_244_" fill="#3C5185"></path>
                        </g>
                        <g transform="translate(100.000000, 60.000000)">
                            <path d="M22.5,17 C49,1.5 92.5,1.5 119,17 C145.5,32.5 145.5,57.5 119,72.5 C92.5,88 49,88 22.5,72.5 C-4,57.5 -4,32.5 22.5,17 Z" id="XMLID_259_" fill="url(#radialGradient-23)"></path>
                            <path d="M118.5,30 L113,30 C111,27.5 108,25 104,23 C85,12 54,12 35,23 C31.5,25 28.5,27.5 26,30 L20.5,30 L20.5,43 L20.5,43 C20.5,50.5 25,57.5 34.5,63 C53.5,74 84.5,74 103.5,63 C113,57.5 118,50 117.5,43 L117.5,43 L117.5,30 L118.5,30 Z" id="XMLID_258_" fill="url(#linearGradient-24)"></path>
                            <path d="M35.5,10 C54.5,-1 85.5,-1 104.5,10 C123.5,21 123.5,39 104.5,50 C85.5,61 54.5,61 35.5,50 C16.5,39 16.5,21 35.5,10 Z" id="XMLID_257_" fill="#FAFBFD"></path>
                            <g id="XMLID_256_" transform="translate(25.000000, 5.000000)" fill="url(#linearGradient-25)">
                                <path d="M15.5,42.5 C7.5,38 3,31.5 3,25 C3,18.5 7.5,12 15.5,7.5 C23.5,3 34,0.5 45,0.5 C56,0.5 66.5,3 74.5,7.5 L73.5,9.5 C66,5 56,3 45.5,3 C35,3 25,5.5 17.5,9.5 C10,13.5 6,19.5 6,25 C6,31 10,36.5 17.5,40.5 L15.5,42.5 Z" id="XMLID_327_"></path>
                            </g>
                            <path d="M71,19 L68,21.5 L64,19 L61.5,21 C62,21 62.5,21 62.5,21.5 C63.5,22 64,23 64,24 C64,25 63,26.5 61.5,27.5 C60,29 58.5,29.5 56.5,30 C55,30.5 53.5,30.5 52.5,29.5 C51,28.5 50.5,27.5 51.5,25.5 L55,24 L55,24.5 C55,24.5 55,25 55,25.5 C55,26 55.5,26.5 55.5,26.5 C56,26.5 56.5,27 57,26.5 C57.5,26.5 58.5,26 59,25.5 C59.5,25 60,24.5 60,24 C60,23.5 60,23 59.5,23 C59,22.5 58,22.5 57,22.5 L57.5,20.5 L65,14 L71,19 Z M68.5,24 L73.5,20 L81,24.5 L78.5,26.5 L62,35 L59.5,33.5 L75.5,25.5 L73,24 L71,25.5 L68.5,24 Z M92,31 L69.5,39.5 L67,38 L89.5,29.5 L92,31 Z M80,41.5 C79,42 78,42.5 77,43 C76,43.5 75,43 74.5,43 C74,42.5 73.5,42 74,41.5 C74,41 74.5,40 75.5,39.5 C76.5,39 77.5,38.5 78.5,38 C79.5,37.5 80.5,38 81,38 C81.5,38.5 82,39 81.5,39.5 C81.5,40 81,40.5 80,41.5 Z M76.5,40.5 L76.5,41 L77,41 C77.5,41 77.5,40.5 78,40.5 C78.5,40 78.5,40 78.5,39.5 L78.5,39 L78,39 C77.5,39 77.5,39.5 77,39.5 C77,40 76.5,40 76.5,40.5 Z M83,30.5 C82,31 81,31.5 80,32 C79,32.5 78,32 77.5,32 C77,31.5 76.5,31 77,30.5 C77,30 77.5,29 78.5,28.5 C79.5,28 80.5,27.5 81.5,27 C82.5,26.5 83.5,27 84,27 C84.5,27.5 85,28 84.5,28.5 C84.5,29 84,29.5 83,30.5 Z M79.5,29.5 C79.5,30 79.5,30 79.5,29.5 C80,30 80,30 80.5,30 C81,30 81,29.5 81.5,29.5 C82,29 82,29 82,28.5 L82,28 L81.5,28 C81,28 81,28.5 80.5,28.5 C80,29 79.5,29.5 79.5,29.5 Z" id="XMLID_67_" fill="#3C5185"></path>
                        </g>
                    </g>
                    <g id="编组" transform="translate(195.000000, 185.000000)">
                        <g id="XMLID_5811_" fill="#D1E1F2">
                            <path d="M6.6,282.574468 C5.4,282.574468 4.8,282.574468 3.6,281.968085 C1.2,280.755319 0.6,278.329787 0.6,275.297872 L0.6,126.12766 C0.6,120.06383 4.8,112.787234 9.6,109.755319 L195,1.81914894 C198,-1.59872116e-14 200.4,-1.59872116e-14 202.8,1.21276596 C205.2,2.42553191 205.8,4.85106383 205.8,7.88297872 L205.8,157.053191 C205.8,163.117021 201.6,170.393617 196.8,173.425532 L11.4,281.361702 C9.6,282.574468 7.8,282.574468 6.6,282.574468 Z M199.2,3.63829787 C198.6,3.63829787 197.4,4.24468085 196.2,4.85106383 L10.8,112.787234 C6.6,115.212766 3,121.276596 3,126.12766 L3,275.297872 C3,277.117021 3.6,278.93617 4.8,279.542553 C6,280.148936 7.2,280.148936 9,278.93617 L194.4,171 C198.6,168.574468 202.2,162.510638 202.2,157.659574 L202.2,8.4893617 C202.2,6.67021277 201.6,4.85106383 200.4,4.24468085 C200.4,3.63829787 199.8,3.63829787 199.2,3.63829787 Z" id="形状"></path>
                        </g>
                        <g id="XMLID_5810_" transform="translate(30.000000, 10.000000)" fill="#D1E1F2">
                            <path d="M8.43589744,310.169811 C7.23076923,310.169811 6.02564103,310.169811 5.42307692,309.566038 C3.01282051,308.358491 1.80769231,305.339623 1.80769231,302.320755 L1.80769231,138.09434 C1.80769231,131.45283 6.62820513,123.603774 12.0512821,120.584906 L217.525641,1.64150943 C220.538462,-0.169811321 223.551282,-0.169811321 225.961538,1.03773585 C228.371795,2.24528302 229.576923,5.26415094 229.576923,8.28301887 L229.576923,171.90566 C229.576923,178.54717 224.75641,186.396226 219.333333,189.415094 L13.2564103,308.962264 C11.4487179,309.566038 9.64102564,310.169811 8.43589744,310.169811 Z M222.346154,3.45283019 C221.141026,3.45283019 219.935897,4.05660377 218.730769,4.66037736 L13.2564103,123 C8.43589744,125.415094 4.82051282,132.660377 4.82051282,138.09434 L4.82051282,301.716981 C4.82051282,304.132075 5.42307692,305.943396 6.62820513,306.54717 C7.83333333,307.150943 9.64102564,307.150943 11.4487179,305.943396 L216.923077,187 C221.74359,184.584906 225.358974,177.339623 225.358974,171.90566 L225.358974,8.28301887 C225.358974,5.86792453 224.75641,4.05660377 223.551282,3.45283019 C223.551282,3.45283019 222.948718,3.45283019 222.346154,3.45283019 Z" id="形状"></path>
                        </g>
                        <g transform="translate(60.000000, 20.000000)">
                            <g opacity="0.14" transform="translate(0.000000, 210.472973)" fill="#3C5185">
                                <path d="M239.402439,8.41891892 C239.402439,1.80405405 235.219512,-0.601351351 229.243902,2.40540541 L10.5365854,129.290541 C5.15853659,132.297297 0.37804878,140.114865 0.37804878,146.72973 L0.37804878,223.101351 C0.37804878,229.716216 4.56097561,232.121622 10.5365854,229.114865 L229.243902,102.22973 C234.621951,99.222973 239.402439,91.4054054 239.402439,84.7905405 L239.402439,8.41891892 L239.402439,8.41891892 Z" id="XMLID_7_" fill-opacity="0"></path>
                                <path d="M239.402439,8.41891892 C239.402439,1.80405405 235.219512,-0.601351351 229.243902,2.40540541 L10.5365854,129.290541 C5.15853659,132.297297 0.37804878,140.114865 0.37804878,146.72973 L0.37804878,221.297297 C0.37804878,227.912162 4.56097561,230.317568 10.5365854,227.310811 L229.243902,100.425676 C234.621951,97.4189189 239.402439,89.6013514 239.402439,82.9864865 L239.402439,8.41891892 L239.402439,8.41891892 Z" id="XMLID_398_" opacity="0.02439"></path>
                                <path d="M239.402439,8.41891892 C239.402439,1.80405405 235.219512,-0.601351351 229.243902,2.40540541 L10.5365854,129.290541 C5.15853659,132.297297 0.37804878,140.114865 0.37804878,146.72973 L0.37804878,219.493243 C0.37804878,226.108108 4.56097561,228.513514 10.5365854,225.506757 L229.243902,98.6216216 C234.621951,95.6148649 239.402439,87.7972973 239.402439,81.1824324 L239.402439,8.41891892 L239.402439,8.41891892 Z" id="XMLID_397_" opacity="0.04878"></path>
                                <path d="M239.402439,9.02027027 C239.402439,2.40540541 235.219512,-2.0206059e-12 229.243902,3.00675676 L10.5365854,129.891892 C5.15853659,132.898649 0.37804878,140.716216 0.37804878,147.331081 L0.37804878,217.689189 C0.37804878,224.304054 4.56097561,226.709459 10.5365854,223.702703 L229.243902,96.8175676 C234.621951,93.8108108 239.402439,85.9932432 239.402439,79.3783784 L239.402439,9.02027027 L239.402439,9.02027027 Z" id="XMLID_396_" opacity="0.073171"></path>
                                <path d="M239.402439,9.02027027 C239.402439,2.40540541 235.219512,-2.01927364e-12 229.243902,3.00675676 L10.5365854,129.891892 C5.15853659,132.898649 0.37804878,140.716216 0.37804878,147.331081 L0.37804878,215.885135 C0.37804878,222.5 4.56097561,224.905405 10.5365854,221.898649 L229.243902,95.0135135 C234.621951,92.0067568 239.402439,84.1891892 239.402439,77.5743243 L239.402439,9.02027027 L239.402439,9.02027027 Z" id="XMLID_395_" opacity="0.097561"></path>
                                <path d="M239.402439,9.02027027 C239.402439,2.40540541 235.219512,-2.01971773e-12 229.243902,3.00675676 L10.5365854,129.891892 C5.15853659,132.898649 0.37804878,140.716216 0.37804878,147.331081 L0.37804878,214.081081 C0.37804878,220.695946 4.56097561,223.101351 10.5365854,220.094595 L229.243902,93.2094595 C234.621951,90.2027027 239.402439,82.3851351 239.402439,75.7702703 L239.402439,9.02027027 L239.402439,9.02027027 Z" id="XMLID_394_" opacity="0.122"></path>
                                <path d="M239.402439,9.02027027 C239.402439,2.40540541 235.219512,-2.02016182e-12 229.243902,3.00675676 L10.5365854,129.891892 C5.15853659,132.898649 0.37804878,140.716216 0.37804878,147.331081 L0.37804878,212.277027 C0.37804878,218.891892 4.56097561,221.297297 10.5365854,218.290541 L229.243902,91.4054054 C234.621951,88.3986486 239.402439,80.5810811 239.402439,73.9662162 L239.402439,9.02027027 L239.402439,9.02027027 Z" id="XMLID_393_" opacity="0.1463"></path>
                                <path d="M239.402439,9.02027027 C239.402439,2.40540541 235.219512,-2.01927364e-12 229.243902,3.00675676 L10.5365854,129.891892 C5.15853659,132.898649 0.37804878,140.716216 0.37804878,147.331081 L0.37804878,209.871622 C0.37804878,216.486486 4.56097561,218.891892 10.5365854,215.885135 L229.243902,89 C234.621951,85.9932432 239.402439,78.1756757 239.402439,71.5608108 L239.402439,9.02027027 L239.402439,9.02027027 Z" id="XMLID_392_" opacity="0.1707"></path>
                                <path d="M239.402439,9.02027027 C239.402439,2.40540541 235.219512,-2.01949568e-12 229.243902,3.00675676 L10.5365854,129.891892 C5.15853659,132.898649 0.37804878,140.716216 0.37804878,147.331081 L0.37804878,208.067568 C0.37804878,214.682432 4.56097561,217.087838 10.5365854,214.081081 L229.243902,87.1959459 C234.621951,84.1891892 239.402439,76.3716216 239.402439,69.7567568 L239.402439,9.02027027 L239.402439,9.02027027 Z" id="XMLID_391_" opacity="0.1951"></path>
                                <path d="M239.402439,9.02027027 C239.402439,2.40540541 235.219512,-2.01949568e-12 229.243902,3.00675676 L10.5365854,129.891892 C5.15853659,132.898649 0.37804878,140.716216 0.37804878,147.331081 L0.37804878,206.263514 C0.37804878,212.878378 4.56097561,215.283784 10.5365854,212.277027 L229.243902,85.3918919 C234.621951,82.3851351 239.402439,74.5675676 239.402439,67.9527027 L239.402439,9.02027027 L239.402439,9.02027027 Z" id="XMLID_390_" opacity="0.2195"></path>
                                <path d="M239.402439,9.02027027 C239.402439,2.40540541 235.219512,-2.02016182e-12 229.243902,3.00675676 L10.5365854,129.891892 C5.15853659,132.898649 0.37804878,140.716216 0.37804878,147.331081 L0.37804878,204.459459 C0.37804878,211.074324 4.56097561,213.47973 10.5365854,210.472973 L229.243902,83.5878378 C234.621951,80.5810811 239.402439,72.7635135 239.402439,66.1486486 L239.402439,9.02027027 L239.402439,9.02027027 Z" id="XMLID_389_" opacity="0.2439"></path>
                                <path d="M239.402439,9.02027027 C239.402439,2.40540541 235.219512,-2.0206059e-12 229.243902,3.00675676 L10.5365854,129.891892 C5.15853659,132.898649 0.37804878,140.716216 0.37804878,147.331081 L0.37804878,202.054054 C0.37804878,208.668919 4.56097561,211.074324 10.5365854,208.067568 L229.243902,81.1824324 C234.621951,78.1756757 239.402439,70.3581081 239.402439,63.7432432 L239.402439,9.02027027 L239.402439,9.02027027 Z" id="XMLID_388_" opacity="0.2683"></path>
                                <path d="M239.402439,9.02027027 C239.402439,2.40540541 235.219512,-2.01927364e-12 229.243902,3.00675676 L10.5365854,129.891892 C5.15853659,132.898649 0.37804878,140.716216 0.37804878,147.331081 L0.37804878,200.25 C0.37804878,206.864865 4.56097561,209.27027 10.5365854,206.263514 L229.243902,79.3783784 C234.621951,76.3716216 239.402439,68.5540541 239.402439,61.9391892 L239.402439,9.02027027 L239.402439,9.02027027 Z" id="XMLID_387_" opacity="0.2927"></path>
                                <path d="M239.402439,9.02027027 C239.402439,2.40540541 235.219512,-2.01905159e-12 229.243902,3.00675676 L10.5365854,129.891892 C5.15853659,132.898649 0.37804878,140.716216 0.37804878,147.331081 L0.37804878,198.445946 C0.37804878,205.060811 4.56097561,207.466216 10.5365854,204.459459 L229.243902,77.5743243 C234.621951,74.5675676 239.402439,66.75 239.402439,60.1351351 L239.402439,9.02027027 L239.402439,9.02027027 Z" id="XMLID_386_" opacity="0.3171"></path>
                                <path d="M239.402439,9.02027027 C239.402439,2.40540541 235.219512,-2.01971773e-12 229.243902,3.00675676 L10.5365854,129.891892 C5.15853659,132.898649 0.37804878,140.716216 0.37804878,147.331081 L0.37804878,196.641892 C0.37804878,203.256757 4.56097561,205.662162 10.5365854,202.655405 L229.243902,75.7702703 C234.621951,72.7635135 239.402439,64.9459459 239.402439,58.3310811 L239.402439,9.02027027 L239.402439,9.02027027 Z" id="XMLID_385_" opacity="0.3415"></path>
                                <path d="M239.402439,9.02027027 C239.402439,2.40540541 235.219512,-2.02016182e-12 229.243902,3.00675676 L10.5365854,129.891892 C5.15853659,132.898649 0.37804878,140.716216 0.37804878,147.331081 L0.37804878,194.236486 C0.37804878,200.851351 4.56097561,203.256757 10.5365854,200.25 L229.243902,73.3648649 C234.621951,70.3581081 239.402439,62.5405405 239.402439,55.9256757 L239.402439,9.02027027 L239.402439,9.02027027 Z" id="XMLID_384_" opacity="0.3659"></path>
                                <path d="M239.402439,9.02027027 C239.402439,2.40540541 235.219512,-2.01905159e-12 229.243902,3.00675676 L10.5365854,129.891892 C5.15853659,132.898649 0.37804878,140.716216 0.37804878,147.331081 L0.37804878,192.432432 C0.37804878,199.047297 4.56097561,201.452703 10.5365854,198.445946 L229.243902,71.5608108 C234.621951,68.5540541 239.402439,60.7364865 239.402439,54.1216216 L239.402439,9.02027027 L239.402439,9.02027027 Z" id="XMLID_383_" opacity="0.3902"></path>
                                <path d="M239.402439,9.02027027 C239.402439,2.40540541 235.219512,-2.0186075e-12 229.243902,3.00675676 L10.5365854,129.891892 C5.15853659,132.898649 0.37804878,140.716216 0.37804878,147.331081 L0.37804878,190.628378 C0.37804878,197.243243 4.56097561,199.648649 10.5365854,196.641892 L229.243902,69.7567568 C234.621951,66.75 239.402439,58.9324324 239.402439,52.3175676 L239.402439,9.02027027 L239.402439,9.02027027 Z" id="XMLID_382_" opacity="0.4146"></path>
                                <path d="M239.402439,9.62162162 C239.402439,3.00675676 235.219512,0.601351351 229.243902,3.60810811 L10.5365854,130.493243 C5.15853659,133.5 0.37804878,141.317568 0.37804878,147.932432 L0.37804878,189.425676 C0.37804878,196.040541 4.56097561,198.445946 10.5365854,195.439189 L229.243902,68.5540541 C234.621951,65.5472973 239.402439,57.7297297 239.402439,51.1148649 L239.402439,9.62162162 L239.402439,9.62162162 Z" id="XMLID_381_" opacity="0.439"></path>
                                <path d="M239.402439,9.62162162 C239.402439,3.00675676 235.219512,0.601351351 229.243902,3.60810811 L10.5365854,130.493243 C5.15853659,133.5 0.37804878,141.317568 0.37804878,147.932432 L0.37804878,187.02027 C0.37804878,193.635135 4.56097561,196.040541 10.5365854,193.033784 L229.243902,66.1486486 C234.621951,63.1418919 239.402439,55.3243243 239.402439,48.7094595 L239.402439,9.62162162 L239.402439,9.62162162 Z" id="XMLID_380_" opacity="0.4634"></path>
                                <path d="M239.402439,9.62162162 C239.402439,3.00675676 235.219512,0.601351351 229.243902,3.60810811 L10.5365854,130.493243 C5.15853659,133.5 0.37804878,141.317568 0.37804878,147.932432 L0.37804878,185.216216 C0.37804878,191.831081 4.56097561,194.236486 10.5365854,191.22973 L229.243902,64.3445946 C234.621951,61.3378378 239.402439,53.5202703 239.402439,46.9054054 L239.402439,9.62162162 L239.402439,9.62162162 Z" id="XMLID_379_" opacity="0.4878"></path>
                                <path d="M239.402439,9.62162162 C239.402439,3.00675676 235.219512,0.601351351 229.243902,3.60810811 L10.5365854,130.493243 C5.15853659,133.5 0.37804878,141.317568 0.37804878,147.932432 L0.37804878,183.412162 C0.37804878,190.027027 4.56097561,192.432432 10.5365854,189.425676 L229.243902,62.5405405 C234.621951,59.5337838 239.402439,51.7162162 239.402439,45.1013514 L239.402439,9.62162162 L239.402439,9.62162162 Z" id="XMLID_378_" opacity="0.5122"></path>
                                <path d="M239.402439,9.62162162 C239.402439,3.00675676 235.219512,0.601351351 229.243902,3.60810811 L10.5365854,130.493243 C5.15853659,133.5 0.37804878,141.317568 0.37804878,147.932432 L0.37804878,181.608108 C0.37804878,188.222973 4.56097561,190.628378 10.5365854,187.621622 L229.243902,60.7364865 C234.621951,57.7297297 239.402439,49.9121622 239.402439,43.2972973 L239.402439,9.62162162 L239.402439,9.62162162 Z" id="XMLID_377_" opacity="0.5366"></path>
                                <path d="M239.402439,9.62162162 C239.402439,3.00675676 235.219512,0.601351351 229.243902,3.60810811 L10.5365854,130.493243 C5.15853659,133.5 0.37804878,141.317568 0.37804878,147.932432 L0.37804878,179.202703 C0.37804878,185.817568 4.56097561,188.222973 10.5365854,185.216216 L229.243902,58.3310811 C234.621951,55.3243243 239.402439,47.5067568 239.402439,40.8918919 L239.402439,9.62162162 L239.402439,9.62162162 Z" id="XMLID_376_" opacity="0.561"></path>
                                <path d="M239.402439,9.62162162 C239.402439,3.00675676 235.219512,0.601351351 229.243902,3.60810811 L10.5365854,130.493243 C5.15853659,133.5 0.37804878,141.317568 0.37804878,147.932432 L0.37804878,177.398649 C0.37804878,184.013514 4.56097561,186.418919 10.5365854,183.412162 L229.243902,56.527027 C234.621951,53.5202703 239.402439,45.7027027 239.402439,39.0878378 L239.402439,9.62162162 L239.402439,9.62162162 Z" id="XMLID_375_" opacity="0.5854"></path>
                                <path d="M239.402439,9.62162162 C239.402439,3.00675676 235.219512,0.601351351 229.243902,3.60810811 L10.5365854,130.493243 C5.15853659,133.5 0.37804878,141.317568 0.37804878,147.932432 L0.37804878,175.594595 C0.37804878,182.209459 4.56097561,184.614865 10.5365854,181.608108 L229.243902,54.722973 C234.621951,51.7162162 239.402439,43.8986486 239.402439,37.2837838 L239.402439,9.62162162 L239.402439,9.62162162 Z" id="XMLID_374_" opacity="0.6098"></path>
                                <path d="M239.402439,9.62162162 C239.402439,3.00675676 235.219512,0.601351351 229.243902,3.60810811 L10.5365854,130.493243 C5.15853659,133.5 0.37804878,141.317568 0.37804878,147.932432 L0.37804878,173.790541 C0.37804878,180.405405 4.56097561,182.810811 10.5365854,179.804054 L229.243902,52.9189189 C234.621951,49.9121622 239.402439,42.0945946 239.402439,35.4797297 L239.402439,9.62162162 L239.402439,9.62162162 Z" id="XMLID_373_" opacity="0.6341"></path>
                                <path d="M239.402439,9.62162162 C239.402439,3.00675676 235.219512,0.601351351 229.243902,3.60810811 L10.5365854,130.493243 C5.15853659,133.5 0.37804878,141.317568 0.37804878,147.932432 L0.37804878,171.385135 C0.37804878,178 4.56097561,180.405405 10.5365854,177.398649 L229.243902,50.5135135 C234.621951,47.5067568 239.402439,39.6891892 239.402439,33.0743243 L239.402439,9.62162162 L239.402439,9.62162162 Z" id="XMLID_372_" opacity="0.6585"></path>
                                <path d="M239.402439,9.62162162 C239.402439,3.00675676 235.219512,0.601351351 229.243902,3.60810811 L10.5365854,130.493243 C5.15853659,133.5 0.37804878,141.317568 0.37804878,147.932432 L0.37804878,169.581081 C0.37804878,176.195946 4.56097561,178.601351 10.5365854,175.594595 L229.243902,48.7094595 C234.621951,45.7027027 239.402439,37.8851351 239.402439,31.2702703 L239.402439,9.62162162 L239.402439,9.62162162 Z" id="XMLID_371_" opacity="0.6829"></path>
                                <path d="M239.402439,9.62162162 C239.402439,3.00675676 235.219512,0.601351351 229.243902,3.60810811 L10.5365854,130.493243 C5.15853659,133.5 0.37804878,141.317568 0.37804878,147.932432 L0.37804878,167.777027 C0.37804878,174.391892 4.56097561,176.797297 10.5365854,173.790541 L229.243902,46.9054054 C234.621951,43.8986486 239.402439,36.0810811 239.402439,29.4662162 L239.402439,9.62162162 L239.402439,9.62162162 Z" id="XMLID_370_" opacity="0.7073"></path>
                                <path d="M239.402439,9.62162162 C239.402439,3.00675676 235.219512,0.601351351 229.243902,3.60810811 L10.5365854,130.493243 C5.15853659,133.5 0.37804878,141.317568 0.37804878,147.932432 L0.37804878,165.972973 C0.37804878,172.587838 4.56097561,174.993243 10.5365854,171.986486 L229.243902,45.1013514 C234.621951,42.0945946 239.402439,34.277027 239.402439,27.6621622 L239.402439,9.62162162 L239.402439,9.62162162 Z" id="XMLID_369_" opacity="0.7317"></path>
                                <path d="M239.402439,9.62162162 C239.402439,3.00675676 235.219512,0.601351351 229.243902,3.60810811 L10.5365854,130.493243 C5.15853659,133.5 0.37804878,141.317568 0.37804878,147.932432 L0.37804878,163.567568 C0.37804878,170.182432 4.56097561,172.587838 10.5365854,169.581081 L229.243902,42.6959459 C234.621951,39.6891892 239.402439,31.8716216 239.402439,25.2567568 L239.402439,9.62162162 L239.402439,9.62162162 Z" id="XMLID_368_" opacity="0.7561"></path>
                                <path d="M239.402439,9.62162162 C239.402439,3.00675676 235.219512,0.601351351 229.243902,3.60810811 L10.5365854,130.493243 C5.15853659,133.5 0.37804878,141.317568 0.37804878,147.932432 L0.37804878,161.763514 C0.37804878,168.378378 4.56097561,170.783784 10.5365854,167.777027 L229.243902,40.8918919 C234.621951,37.8851351 239.402439,30.0675676 239.402439,23.4527027 L239.402439,9.62162162 L239.402439,9.62162162 Z" id="XMLID_367_" opacity="0.7805"></path>
                                <path d="M239.402439,10.222973 C239.402439,3.60810811 235.219512,1.2027027 229.243902,4.20945946 L10.5365854,131.094595 C5.15853659,134.101351 0.37804878,141.918919 0.37804878,148.533784 L0.37804878,160.560811 C0.37804878,167.175676 4.56097561,169.581081 10.5365854,166.574324 L229.243902,39.6891892 C234.621951,36.6824324 239.402439,28.8648649 239.402439,22.25 L239.402439,10.222973 L239.402439,10.222973 Z" id="XMLID_366_" opacity="0.8049"></path>
                                <path d="M239.402439,10.222973 C239.402439,3.60810811 235.219512,1.2027027 229.243902,4.20945946 L10.5365854,131.094595 C5.15853659,134.101351 0.37804878,141.918919 0.37804878,148.533784 L0.37804878,158.756757 C0.37804878,165.371622 4.56097561,167.777027 10.5365854,164.77027 L229.243902,37.8851351 C234.621951,34.8783784 239.402439,27.0608108 239.402439,20.4459459 L239.402439,10.222973 L239.402439,10.222973 Z" id="XMLID_365_" opacity="0.8293"></path>
                                <path d="M239.402439,10.222973 C239.402439,3.60810811 235.219512,1.2027027 229.243902,4.20945946 L10.5365854,131.094595 C5.15853659,134.101351 0.37804878,141.918919 0.37804878,148.533784 L0.37804878,156.351351 C0.37804878,162.966216 4.56097561,165.371622 10.5365854,162.364865 L229.243902,35.4797297 C234.621951,32.472973 239.402439,24.6554054 239.402439,18.0405405 L239.402439,10.222973 L239.402439,10.222973 Z" id="XMLID_364_" opacity="0.8537"></path>
                                <path d="M239.402439,10.222973 C239.402439,3.60810811 235.219512,1.2027027 229.243902,4.20945946 L10.5365854,131.094595 C5.15853659,134.101351 0.37804878,141.918919 0.37804878,148.533784 L0.37804878,154.547297 C0.37804878,161.162162 4.56097561,163.567568 10.5365854,160.560811 L229.243902,33.6756757 C234.621951,30.6689189 239.402439,22.8513514 239.402439,16.2364865 L239.402439,10.222973 L239.402439,10.222973 Z" id="XMLID_363_" opacity="0.878"></path>
                                <path d="M239.402439,10.222973 C239.402439,3.60810811 235.219512,1.2027027 229.243902,4.20945946 L10.5365854,131.094595 C5.15853659,134.101351 0.37804878,141.918919 0.37804878,148.533784 L0.37804878,152.743243 C0.37804878,159.358108 4.56097561,161.763514 10.5365854,158.756757 L229.243902,31.8716216 C234.621951,28.8648649 239.402439,21.0472973 239.402439,14.4324324 L239.402439,10.222973 L239.402439,10.222973 Z" id="XMLID_362_" opacity="0.9024"></path>
                                <path d="M239.402439,10.222973 C239.402439,3.60810811 235.219512,1.2027027 229.243902,4.20945946 L10.5365854,131.094595 C5.15853659,134.101351 0.37804878,141.918919 0.37804878,148.533784 L0.37804878,150.939189 C0.37804878,157.554054 4.56097561,159.959459 10.5365854,156.952703 L229.243902,30.0675676 C234.621951,27.0608108 239.402439,19.2432432 239.402439,12.6283784 L239.402439,10.222973 Z" id="XMLID_361_" opacity="0.9268"></path>
                                <path d="M239.402439,10.222973 C239.402439,3.60810811 235.219512,1.2027027 229.243902,4.20945946 L10.5365854,131.094595 C5.15853659,134.101351 0.37804878,141.918919 0.37804878,148.533784 L0.37804878,148.533784 C0.37804878,155.148649 4.56097561,157.554054 10.5365854,154.547297 L229.243902,27.6621622 C235.219512,24.6554054 239.402439,16.8378378 239.402439,10.222973 L239.402439,10.222973 Z" id="XMLID_360_" opacity="0.9512"></path>
                                <path d="M239.402439,10.222973 C239.402439,3.60810811 235.219512,1.2027027 229.243902,4.20945946 L10.5365854,131.094595 C5.15853659,134.101351 0.37804878,141.918919 0.37804878,148.533784 L0.37804878,146.72973 C0.37804878,153.344595 4.56097561,155.75 10.5365854,152.743243 L229.243902,25.8581081 C234.621951,22.8513514 239.402439,15.0337838 239.402439,8.41891892 L239.402439,10.222973 L239.402439,10.222973 Z" id="XMLID_359_" opacity="0.9756"></path>
                                <path d="M239.402439,10.222973 C239.402439,3.60810811 235.219512,1.2027027 229.243902,4.20945946 L10.5365854,131.094595 C5.15853659,134.101351 0.37804878,141.918919 0.37804878,148.533784 L0.37804878,144.925676 C0.37804878,151.540541 4.56097561,153.945946 10.5365854,150.939189 L229.841463,24.0540541 C235.219512,21.0472973 240,13.2297297 240,6.61486486 L239.402439,10.222973 L239.402439,10.222973 Z" id="XMLID_1_"></path>
                            </g>
                            <path d="M239.402439,10.222973 C239.402439,3.60810811 235.219512,1.2027027 229.243902,4.20945946 L11.1341463,131.094595 C5.75609756,134.101351 0.975609756,141.918919 0.975609756,148.533784 L0.975609756,323.527027 C0.975609756,330.141892 5.15853659,332.547297 11.1341463,329.540541 L229.841463,202.655405 C235.219512,199.648649 240,191.831081 240,185.216216 L239.402439,10.222973 L239.402439,10.222973 Z" id="XMLID_5805_" fill="#5A94F3"></path>
                            <path d="M225.658537,39.0878378 C225.658537,33.6756757 222.073171,31.2702703 217.292683,34.277027 L31.4512195,143.121622 C26.6707317,146.128378 23.0853659,152.743243 23.0853659,158.155405 L23.0853659,298.27027 C23.0853659,303.682432 26.6707317,306.087838 31.4512195,303.081081 L217.292683,194.236486 C222.073171,191.22973 225.658537,184.614865 225.658537,179.202703 L225.658537,39.0878378 Z" id="XMLID_5804_" fill="#FFFFFF"></path>
                            <path d="M8.74390244,328.337838 L8.74390244,153.344595 C8.74390244,146.72973 13.5243902,138.912162 18.902439,135.905405 L237.609756,9.02027027 C238.207317,8.41891892 238.804878,8.41891892 239.402439,8.41891892 C238.804878,3.60810811 234.621951,1.80405405 229.841463,4.81081081 L11.1341463,131.094595 C5.75609756,134.101351 0.975609756,141.918919 0.975609756,148.533784 L0.975609756,323.527027 C0.975609756,328.939189 4.56097561,331.945946 9.34146341,330.141892 C8.74390244,329.540541 8.74390244,328.939189 8.74390244,328.337838 Z" id="XMLID_5803_" fill="#236CE4"></path>
                            <polygon id="XMLID_5802_" fill="#C9E0F5" points="31.4512195 156.351351 173.670732 72.1621622 173.670732 149.736486 31.4512195 233.925676"></polygon>
                            <polygon id="XMLID_5801_" fill="#EDF5FC" points="31.4512195 239.939189 220.280488 129.891892 220.280488 139.513514 31.4512195 249.560811"></polygon>
                            <polygon id="XMLID_5800_" fill="#EDF5FC" points="31.4512195 259.182432 220.280488 149.736486 220.280488 159.358108 31.4512195 268.804054"></polygon>
                            <polygon id="XMLID_5799_" fill="#EDF5FC" points="31.4512195 279.027027 139.609756 215.885135 139.609756 225.506757 31.4512195 288.648649"></polygon>
                            <path d="M173.670732,72.1621622 L168.292683,75.1689189 C167.695122,75.7702703 167.695122,75.7702703 167.695122,75.7702703 C165.902439,78.1756757 163.512195,80.5810811 161.719512,82.9864865 C158.134146,87.7972973 156.939024,94.4121622 153.95122,99.8243243 C150.963415,104.635135 146.182927,109.445946 140.804878,111.25 C137.219512,112.452703 133.036585,113.054054 128.853659,113.054054 C124.670732,113.655405 120.487805,113.655405 116.902439,116.060811 C109.731707,120.27027 109.134146,131.094595 106.743902,138.310811 C105.54878,141.918919 104.353659,145.527027 102.560976,147.932432 C100.170732,150.337838 97.1829268,152.141892 94.195122,153.945946 C91.2073171,155.148649 88.2195122,156.952703 84.6341463,157.554054 C78.0609756,158.756757 71.4878049,158.155405 65.5121951,158.756757 C55.9512195,159.959459 46.9878049,164.77027 41.0121951,172.587838 C38.6219512,175.594595 37.4268293,178.601351 35.0365854,181.608108 C33.8414634,183.412162 32.6463415,185.817568 30.8536585,187.621622 L30.8536585,232.722973 C31.4512195,232.722973 32.6463415,232.121622 33.2439024,231.52027 L35.0365854,230.918919 L173.073171,148.533784 L173.670732,72.1621622 L173.670732,72.1621622 Z" id="XMLID_358_" fill="url(#linearGradient-26)"></path>
                        </g>
                    </g>
                    <g id="编组" transform="translate(610.000000, 0.000000)">
                        <g opacity="0.4" transform="translate(40.000000, 150.000000)" fill="#3C5185">
                            <polygon id="XMLID_829_" fill-opacity="0" points="97 1 1 56 22 68 104.5 21"></polygon>
                            <polygon id="XMLID_300_" opacity="0.02439" points="97 1 3 54.5 23.5 66.5 104.5 21"></polygon>
                            <polygon id="XMLID_299_" opacity="0.04878" points="97 1 5 53.5 25.5 65.5 104.5 21"></polygon>
                            <polygon id="XMLID_298_" opacity="0.073171" points="97 1 6.5 52.5 27.5 64.5 104.5 21"></polygon>
                            <polygon id="XMLID_297_" opacity="0.097561" points="97 1 8.5 51.5 29.5 63.5 104.5 21"></polygon>
                            <polygon id="XMLID_296_" opacity="0.122" points="97 1 10.5 50.5 31.5 62.5 104.5 21"></polygon>
                            <polygon id="XMLID_295_" opacity="0.1463" points="97 1 12.5 49.5 33 61.5 104.5 21"></polygon>
                            <polygon id="XMLID_294_" opacity="0.1707" points="97 1 14.5 48.5 35 60.5 104.5 21"></polygon>
                            <polygon id="XMLID_293_" opacity="0.1951" points="97 1 16 47.5 37 59.5 104.5 21"></polygon>
                            <polygon id="XMLID_292_" opacity="0.2195" points="97 1 18 46 39 58 104.5 21"></polygon>
                            <polygon id="XMLID_291_" opacity="0.2439" points="97 1 20 45 40.5 57 104.5 21"></polygon>
                            <polygon id="XMLID_290_" opacity="0.2683" points="97 1 22 44 42.5 56 104.5 21"></polygon>
                            <polygon id="XMLID_289_" opacity="0.2927" points="97 1 23.5 43 44.5 55 104.5 21"></polygon>
                            <polygon id="XMLID_288_" opacity="0.3171" points="97 1 25.5 42 46.5 54 104.5 21"></polygon>
                            <polygon id="XMLID_287_" opacity="0.3415" points="97 1 27.5 41 48 53 104.5 21"></polygon>
                            <polygon id="XMLID_286_" opacity="0.3659" points="97 1 29.5 40 50 52 104.5 21"></polygon>
                            <polygon id="XMLID_285_" opacity="0.3902" points="97 1 31 38.5 52 50.5 104.5 21"></polygon>
                            <polygon id="XMLID_284_" opacity="0.4146" points="97 1 33 37.5 54 49.5 104.5 21"></polygon>
                            <polygon id="XMLID_283_" opacity="0.439" points="97 1 35 36.5 56 48.5 104.5 21"></polygon>
                            <polygon id="XMLID_282_" opacity="0.4634" points="97 1 37 35.5 57.5 47.5 104.5 21"></polygon>
                            <polygon id="XMLID_281_" opacity="0.4878" points="97 1 39 34.5 59.5 46.5 104.5 21"></polygon>
                            <polygon id="XMLID_280_" opacity="0.5122" points="97 1 40.5 33.5 61.5 45.5 104.5 21"></polygon>
                            <polygon id="XMLID_279_" opacity="0.5366" points="97 1 42.5 32.5 63.5 44.5 104.5 21"></polygon>
                            <polygon id="XMLID_278_" opacity="0.561" points="97 1 44.5 31 65 43 104.5 21"></polygon>
                            <polygon id="XMLID_277_" opacity="0.5854" points="97 1 46.5 30 67 42 104.5 21"></polygon>
                            <polygon id="XMLID_276_" opacity="0.6098" points="97 1 48 29 69 41 104.5 21"></polygon>
                            <polygon id="XMLID_275_" opacity="0.6341" points="97 1 50 28 71 40 104.5 21"></polygon>
                            <polygon id="XMLID_274_" opacity="0.6585" points="97 1 52 27 73 39 104.5 21"></polygon>
                            <polygon id="XMLID_273_" opacity="0.6829" points="97 1 54 26 74.5 38 104.5 21"></polygon>
                            <polygon id="XMLID_272_" opacity="0.7073" points="97 1 55.5 25 76.5 37 104.5 21"></polygon>
                            <polygon id="XMLID_271_" opacity="0.7317" points="97 1 57.5 24 78.5 36 104.5 21"></polygon>
                            <polygon id="XMLID_270_" opacity="0.7561" points="97 1 59.5 22.5 80.5 34.5 104.5 21"></polygon>
                            <polygon id="XMLID_269_" opacity="0.7805" points="97 1 61.5 21.5 82 33.5 104.5 21"></polygon>
                            <polygon id="XMLID_268_" opacity="0.8049" points="97 1 63.5 20.5 84 32.5 104.5 21"></polygon>
                            <polygon id="XMLID_267_" opacity="0.8293" points="97 1 65 19.5 86 31.5 104.5 21"></polygon>
                            <polygon id="XMLID_266_" opacity="0.8537" points="97 1 67 18.5 88 30.5 104.5 21"></polygon>
                            <polygon id="XMLID_265_" opacity="0.878" points="97 1 69 17.5 89.5 29.5 104.5 21"></polygon>
                            <polygon id="XMLID_264_" opacity="0.9024" points="97 1 71 16.5 91.5 28.5 104.5 21"></polygon>
                            <polygon id="XMLID_263_" opacity="0.9268" points="97 1 72.5 15 93.5 27 104.5 21"></polygon>
                            <polygon id="XMLID_262_" opacity="0.9512" points="97 1 74.5 14 95.5 26 104.5 21"></polygon>
                            <polygon id="XMLID_261_" opacity="0.9756" points="97 1 76.5 13 97.5 25 104.5 21"></polygon>
                            <polygon id="XMLID_828_" points="97 1 78.5 12 99 24 104.5 21"></polygon>
                        </g>
                        <g id="XMLID_810_">
                            <path d="M85,172 L81.5,180.5 L76,184.5 C74.5,184.5 73.5,185.5 73.5,187 L73.5,187 C73.5,188.5 75,190 76.5,190 L85,190 C87,190 89.5,189 91,187.5 L102.5,176.5 C105,174.5 104.5,170.5 102,168.5 L99,166.5 L96,165 L85,172 Z" id="XMLID_827_" fill="#3C5185"></path>
                            <path d="M135.5,155.5 L134,165.5 L130,171 C129,171.5 128,172.5 128.5,174 L128.5,174 C129,175.5 130.5,176.5 132.5,176 L141,173.5 C143,173 145,171.5 146,169.5 L154,156 C155.5,153 154.5,149.5 151,148.5 L147.5,147.5 L144,146.5 L135.5,155.5 Z" id="XMLID_826_" fill="#3C5185"></path>
                            <g id="XMLID_824_" transform="translate(10.000000, 35.000000)" fill="#F2B1B5">
                                <path d="M5.5,36 C3.5,36 2,36 1,34 C-0.5,31 1,28.5 4,27 L55,1.5 C58,0 61.5,1.5 62.5,4 C64,7 62.5,10.5 60,11.5 L8,35 C7.5,36 6.5,36 5.5,36 Z" id="XMLID_825_"></path>
                            </g>
                            <g id="XMLID_822_" transform="translate(15.000000, 35.000000)" fill="url(#linearGradient-27)">
                                <path d="M10.5,33 C8,33 6,31.5 4.5,29.5 C3,26.5 4.5,22.5 7.5,21 L49.5,1 C52.5,-0.5 56.5,1 58,4 C59.5,7 58,11 55,12.5 L13,32.5 C12.5,33 11.5,33 10.5,33 Z" id="XMLID_823_"></path>
                            </g>
                            <g id="XMLID_820_" transform="translate(85.000000, 85.000000)" fill="url(#linearGradient-28)">
                                <path d="M50,70.5 C48,70.5 22.5,60.5 22.5,60.5 C20,59.5 18.5,57.5 17.5,55 L2.5,16 C0.5,10.5 3,4 8.5,1.5 C14,-1 21,2 23,7.5 L37,44 L56.5,59.5 C61.5,63 60,62.5 56.5,67.5 C54,71 53.5,70.5 50,70.5 Z" id="XMLID_821_"></path>
                            </g>
                            <g id="XMLID_818_" transform="translate(45.000000, 85.000000)" fill="url(#linearGradient-29)">
                                <path d="M44.5,87.5 C41.5,87.5 38.5,86 36,83.5 L7.5,52 C4,49.5 3,44.5 5.5,40.5 L26,6 C29.5,0.5 37,-1 42,3 C46.5,6.5 60.5,5.5 58,10.5 L28.5,44.5 L51.5,79.5 C53,81 53,83.5 51,85 C49,87 47,87.5 44.5,87.5 Z" id="XMLID_819_"></path>
                            </g>
                            <g id="XMLID_816_" transform="translate(25.000000, 45.000000)" fill="#F2B1B5">
                                <path d="M8.5,54 C6.5,54 5,53 4,51 C2.5,48 4,46 7,44.5 L37.5,29.5 L54,7 C56,4.5 59.5,4 62,6 C64.5,8 65,11.5 63,14 L44.5,39 L10,53.5 C10,54 9,54 8.5,54 Z" id="XMLID_817_"></path>
                            </g>
                            <path d="M110,92 C97,99.5 77.5,107.5 71.5,93.5 L69,85 L49,94 C48,94.5 47.5,94.5 46.5,94.5 C44,94.5 42,92 41,90 C39.5,87 41,83.5 44,82 L64,73 L65,71.5 L56.5,40.5 C56.5,30.5 67,24.5 75.5,29.5 L87.5,35.5 C98,41.5 101,51.5 104.5,64.5 L110,92 Z" id="路径" fill="url(#linearGradient-30)"></path>
                            <ellipse id="XMLID_815_" fill="#F2B1B5" transform="translate(10.027250, 64.756850) rotate(-134.724503) translate(-10.027250, -64.756850) " cx="10.02725" cy="64.75685" rx="8.50001674" ry="5.00000985"></ellipse>
                            <ellipse id="XMLID_814_" fill="#F2B1B5" transform="translate(27.572000, 92.395000) rotate(-134.724503) translate(-27.572000, -92.395000) " cx="27.572" cy="92.395" rx="8.50001674" ry="5.00000985"></ellipse>
                            <path d="M73.5,40 L77,39.5 C78.5,39.5 79.5,38 79,36.5 L77.5,26.5 C77.5,25.5 76.5,25 76,25 L70.5,25.5 C69.5,25.5 69,26.5 69,27 L70.5,37 C71,39 72,40 73.5,40 Z" id="XMLID_813_" fill="#F2B1B5"></path>
                            <path d="M75,34.5 L80.5,32.5 C83,31.5 84,29 83,27 L76,6.5 L53.5,14.5 L57.5,26.5 C60,33 68,37 75,34.5 Z" id="XMLID_812_" fill="#F2B1B5"></path>
                            <g id="XMLID_811_" transform="translate(45.000000, 0.000000)" fill="#3C5185">
                                <path d="M4.5,13.5 C4.5,11.5 6,10 8,9.5 C9.5,9 11.5,8.5 13,6.5 C15,4 18,2.5 21,1.5 C24,0.5 27.5,0.5 30,3 C31,1 34,1 35.5,2 C37.5,3 38.5,5 39.5,7 C41.5,11 42.5,15 42.5,19 C42.5,20 42,21 42,22 C41.5,24.5 41.5,27.5 41,30 C41,30.5 41,30.5 40.5,31 C40,31.5 39.5,31.5 39,31 C38.5,31 38,30.5 38,30 C36.5,28 37.5,26.5 37.5,24.5 C37.5,23.5 36.5,22 35.5,21.5 C34,21 32.5,22 31,22.5 C27.5,23.5 19,21 20.5,16 C14.5,18 7.5,19.5 4.5,13.5 L4.5,13.5 Z" id="XMLID_23_"></path>
                            </g>
                            <path d="M87,56.5 C87,53.5 88,51.5 87,51 C85,50 81.5,66.5 76.5,76.5 C74,81.5 68.5,84.5 68.5,84.5 L70,89.5 L70,89.5 C73.5,87 76.5,84 78.5,80.5 L87,56.5 Z" id="XMLID_259_" fill="#14B5D8"></path>
                        </g>
                    </g>
                </g>
            </g>
        </g>
    </g>
</svg>